<svg xmlns="http://www.w3.org/2000/svg" xmlns:xlink="http://www.w3.org/1999/xlink" width="46" height="46" viewBox="0 0 46 46"><defs><path id="zd6va" d="M492 545a23 23 0 1 1 46 0 23 23 0 1 1-46 0z"/><path id="zd6vb" d="M515 527.75l-.24.79v22.8l.24.23 10.77-6.25z"/><path id="zd6vc" d="M515 527.75l-10.78 17.57 10.78 6.25V540.5z"/><path id="zd6vd" d="M515 553.57l-.14.16v8.13l.13.38 10.79-14.92z"/><path id="zd6ve" d="M515 562.24v-8.67l-10.78-6.25z"/><path id="zd6vf" d="M515 551.57l10.78-6.26L515 540.5z"/><path id="zd6vg" d="M504.22 545.31l10.78 6.26V540.5z"/></defs><g><g transform="translate(-492 -522)"><g><use fill="#efefef" xlink:href="#zd6va"/></g><g><g><use fill="#343434" xlink:href="#zd6vb"/></g><g><use fill="#8b8b8b" xlink:href="#zd6vc"/></g><g><use fill="#3b3b3a" xlink:href="#zd6vd"/></g><g><use fill="#8b8b8b" xlink:href="#zd6ve"/></g><g><use fill="#131313" xlink:href="#zd6vf"/></g><g><use fill="#393939" xlink:href="#zd6vg"/></g></g></g></g></svg>