<?xml version="1.0" encoding="UTF-8" standalone="no"?>
<svg width="56px" height="56px" viewBox="0 0 56 56" version="1.1" xmlns="http://www.w3.org/2000/svg" xmlns:xlink="http://www.w3.org/1999/xlink">
    <!-- Generator: Sketch 46.2 (44496) - http://www.bohemiancoding.com/sketch -->
    <title>OMG</title>
    <desc>Created with Sketch.</desc>
    <defs></defs>
    <g id="Page-1" stroke="none" stroke-width="1" fill="none" fill-rule="evenodd">
        <g id="omisego">
            <g id="OMG">
                <circle id="Oval-1" fill="#1A53F0" cx="28" cy="28" r="28"></circle>
                <path d="M19.2122919,28.5477294 C14.6822312,28.5477294 11.0099709,32.2306819 11.0099709,36.7738647 C11.0099709,41.3170475 14.6827172,45 19.2127779,45 C23.7433246,45 27.4155849,41.3170475 27.4155849,36.7738647 C27.4155849,32.2306819 23.7433246,28.5477294 19.2127779,28.5477294 L19.2122919,28.5477294 Z M19.2122919,42.51165 C16.0542258,42.51165 13.4939469,39.944081 13.4939469,36.7767807 C13.4939469,33.6094805 16.0542258,31.0419115 19.2122919,31.0419115 C22.370844,31.0419115 24.9311229,33.6094805 24.9311229,36.7767807 C24.9257769,39.9416509 22.368414,42.5063039 19.2122919,42.51165 Z M36.7303734,11.0000016 C32.2003127,11.0000016 28.5275664,14.6829541 28.5275664,19.2261369 C28.5275664,23.7693197 32.2003127,27.4522722 36.7303734,27.4522722 C41.2609201,27.4522722 44.9331804,23.7693197 44.9331804,19.2261369 C44.9331804,14.6829541 41.2609201,11.0000016 36.7303734,11.0000016 Z M36.7303734,24.9639222 C33.5723073,24.9639222 31.0120283,22.3963532 31.0120283,19.2290529 C31.0120283,16.0617527 33.5723073,13.4941837 36.7303734,13.4941837 C39.8889255,13.4941837 42.4492044,16.0617527 42.4492044,19.2290529 C42.4438583,22.3939231 39.8864955,24.9585761 36.7303734,24.9639222 Z M19.2122919,11.0000016 C15.3072348,10.9975716 11.9411582,13.7556549 11.1645208,17.5941292 C10.3883694,21.4321175 12.4169579,25.2876021 16.0143733,26.8117165 C19.6117887,28.3353448 23.7822051,27.10575 25.9842977,23.871381 C28.1868762,20.6370119 27.8116797,16.2945495 25.0871308,13.4883516 L27.4131549,13.4883516 L27.4131549,11.0000016 L19.2122919,11.0000016 Z M24.9311229,19.2261369 C24.9311229,22.3934371 22.370844,24.9610061 19.2122919,24.9610061 C16.0542258,24.9610061 13.4939469,22.3934371 13.4939469,19.2261369 C13.4939469,16.0588367 16.0542258,13.4912677 19.2122919,13.4912677 C22.369386,13.4951557 24.9286929,16.0598087 24.934039,19.2261369 L24.9311229,19.2261369 Z" id="Shape" fill="#FFFFFF" fill-rule="nonzero"></path>
            </g>
        </g>
    </g>
</svg>