<?xml version="1.0" encoding="UTF-8" standalone="no"?>
<svg width="56px" height="56px" viewBox="0 0 56 56" version="1.1" xmlns="http://www.w3.org/2000/svg" xmlns:xlink="http://www.w3.org/1999/xlink">
    <!-- Generator: Sketch 46.2 (44496) - http://www.bohemiancoding.com/sketch -->
    <title>ZEC</title>
    <desc>Created with Sketch.</desc>
    <defs>
        <linearGradient x1="86.6530227%" y1="18.9404081%" x2="12.1582357%" y2="82.0819089%" id="linearGradient-1">
            <stop stop-color="#FED05B" offset="0%"></stop>
            <stop stop-color="#CD8523" offset="98.9795918%"></stop>
        </linearGradient>
    </defs>
    <g id="Page-1" stroke="none" stroke-width="1" fill="none" fill-rule="evenodd">
        <g id="zcash">
            <g id="ZEC">
                <path d="M28,56 C12.536027,56 0,43.463973 0,28 C0,12.536027 12.536027,0 28,0 C43.463973,0 56,12.536027 56,28 C56,43.463973 43.463973,56 28,56 Z" id="Oval-Copy" fill="url(#linearGradient-1)"></path>
                <path d="M28,56 C12.536027,56 0,43.463973 0,28 C0,12.536027 12.536027,0 28,0 C43.463973,0 56,12.536027 56,28 C56,43.463973 43.463973,56 28,56 Z M28,49.7777778 C40.0275346,49.7777778 49.7777778,40.0275346 49.7777778,28 C49.7777778,15.9724654 40.0275346,6.22222222 28,6.22222222 C15.9724654,6.22222222 6.22222222,15.9724654 6.22222222,28 C6.22222222,40.0275346 15.9724654,49.7777778 28,49.7777778 Z M26.32,34.9688889 C30.4888889,34.9688889 34.4088889,34.9688889 38.4533333,34.9688889 C38.4533333,37.0222222 38.4533333,39.0133333 38.4533333,41.0666667 C36.0266667,41.0666667 33.6,41.0666667 30.9866667,41.0666667 C31.1111111,42.8088889 31.1733333,44.4266667 31.2977778,46.1688889 C29.1822222,46.1688889 27.1911111,46.1688889 25.0133333,46.1688889 C25.0133333,44.5511111 25.0133333,42.8711111 25.0133333,41.1288889 C22.4622222,41.1288889 20.0977778,41.1288889 17.5466667,41.1288889 C17.5466667,39.1377778 17.2977778,37.1466667 17.6711111,35.28 C17.8577778,34.2844444 18.9777778,33.4133333 19.6622222,32.5422222 C22.0266667,29.7422222 24.3911111,27.0044444 26.8177778,24.2044444 C27.7511111,23.1466667 28.6844444,22.1511111 29.7422222,20.9688889 C25.76,20.9688889 21.9644444,20.9688889 18.1066667,20.9688889 C18.1066667,18.9155556 18.1066667,16.9244444 18.1066667,14.8711111 C20.3466667,14.8711111 22.6488889,14.8711111 25.0133333,14.8711111 C25.0133333,13.1288889 25.0133333,11.5111111 25.0133333,9.76888889 C27.0666667,9.76888889 28.9955556,9.76888889 31.0488889,9.76888889 C31.0488889,11.3866667 31.0488889,13.0044444 31.0488889,14.7466667 C33.5377778,14.7466667 35.9644444,14.7466667 38.5777778,14.7466667 C38.5777778,16.8 38.8266667,18.7911111 38.4533333,20.6577778 C38.2666667,21.6533333 37.1466667,22.5244444 36.4,23.3955556 C34.0355556,26.1955556 31.6711111,28.9333333 29.2444444,31.7333333 C28.3111111,32.8533333 27.3777778,33.8488889 26.32,34.9688889 Z" id="Combined-Shape" fill="#000000" fill-rule="nonzero"></path>
            </g>
        </g>
    </g>
</svg>