<svg xmlns="http://www.w3.org/2000/svg" xmlns:xlink="http://www.w3.org/1999/xlink" width="22" height="7.68" viewBox="0 0 22 7.68"><defs><path id="jig8a" d="M798.83 551.4l-3.04-3.22a.56.56 0 0 0-.82 0 .65.65 0 0 0 0 .88l2.04 2.16h-19.43c-.32 0-.58.28-.58.62 0 .34.26.62.58.62h19.43l-2.04 2.16a.65.65 0 0 0 0 .87c.22.25.6.25.82 0l3.04-3.21a.65.65 0 0 0 0-.88z"/></defs><g><g opacity=".5" transform="translate(-777 -548)"><use fill="#a7aab3" xlink:href="#jig8a"/><use fill="#fff" fill-opacity="0" stroke="#a7aab3" stroke-miterlimit="50" stroke-width=".2" xlink:href="#jig8a"/></g></g></svg>