<?xml version="1.0" standalone="no"?>
<!DOCTYPE svg PUBLIC "-//W3C//DTD SVG 20010904//EN"
 "http://www.w3.org/TR/2001/REC-SVG-20010904/DTD/svg10.dtd">
<svg version="1.0" xmlns="http://www.w3.org/2000/svg"
 width="700.000000pt" height="700.000000pt" viewBox="0 0 700.000000 700.000000"
 preserveAspectRatio="xMidYMid meet">
<metadata>
Created by potrace 1.11, written by Peter Selinger 2001-2013
</metadata>
<g transform="translate(0.000000,700.000000) scale(0.100000,-0.100000)"
fill="#000000" stroke="none">
<path d="M3298 6995 c-2 -1 -41 -5 -88 -9 -100 -7 -225 -22 -295 -36 -27 -5
-61 -12 -75 -14 -188 -34 -440 -107 -606 -174 -27 -11 -74 -30 -104 -42 -170
-69 -483 -245 -654 -367 -264 -191 -510 -425 -719 -682 -135 -167 -327 -475
-421 -676 -106 -227 -200 -501 -252 -740 -17 -76 -43 -220 -49 -270 -4 -33 -9
-69 -11 -80 -18 -98 -25 -570 -10 -715 46 -459 158 -853 357 -1252 38 -76 80
-156 94 -178 14 -22 25 -44 25 -50 0 -5 5 -10 10 -10 6 0 10 -5 10 -10 0 -28
216 -328 338 -470 65 -75 272 -284 347 -351 132 -116 467 -359 495 -359 6 0
10 -4 10 -10 0 -5 5 -10 10 -10 6 0 28 -11 49 -24 122 -78 415 -210 620 -280
192 -66 491 -137 643 -152 35 -3 66 -8 69 -9 3 -2 50 -7 105 -12 189 -15 624
-8 726 12 13 3 43 8 68 11 25 3 54 8 65 11 11 2 54 10 95 18 41 8 89 17 105
20 38 7 258 68 264 72 3 2 -511 520 -1141 1151 -741 742 -1165 1174 -1201
1224 -218 298 -326 630 -321 989 6 434 169 816 479 1124 123 122 254 217 400
289 178 88 316 131 520 163 63 9 352 9 425 -1 269 -36 538 -148 764 -319 50
-37 521 -499 1229 -1206 631 -630 1150 -1148 1152 -1149 2 -2 9 16 15 40 7 23
16 52 20 63 8 19 55 202 65 255 26 130 52 307 62 420 14 157 5 681 -12 709 -1
4 -6 33 -9 66 -3 33 -8 69 -10 80 -2 11 -11 61 -21 110 -94 502 -335 1043
-642 1440 -5 6 -24 30 -43 55 -19 25 -37 47 -40 50 -3 3 -37 43 -77 90 -77 91
-244 258 -358 356 -430 372 -997 653 -1552 769 -100 20 -247 43 -393 60 -55 7
-526 16 -532 10z"/>
<path d="M5023 3248 c-6 -18 -36 -96 -66 -173 -29 -77 -79 -206 -110 -286 -32
-80 -57 -150 -57 -155 0 -5 311 -320 691 -699 l690 -690 25 30 c78 94 274 366
274 381 0 2 16 28 35 58 19 30 35 59 35 63 0 9 -1492 1503 -1501 1503 -3 0
-11 -15 -16 -32z"/>
<path d="M4224 2157 c-82 -32 -196 -76 -254 -98 -58 -21 -114 -43 -125 -48
-11 -4 -37 -16 -58 -25 -21 -9 -44 -16 -52 -16 -8 0 -15 -2 -15 -5 0 -3 338
-344 751 -757 l750 -752 37 20 c42 22 258 163 287 186 11 9 52 40 90 69 39 29
82 65 96 79 l26 25 -692 690 -692 690 -149 -58z"/>
</g>
</svg>
