<svg xmlns="http://www.w3.org/2000/svg" xmlns:xlink="http://www.w3.org/1999/xlink" width="30" height="30" viewBox="0 0 30 30"><defs><path id="d9eca" d="M527.9 476.1v-10.2h22.2v10.2zm20.52-3.42a2.8 2.8 0 0 0-2.3 2.3h-14.04a2.8 2.8 0 0 0-2.29-2.3v-2.87a2.8 2.8 0 0 0 2.3-2.29h14.04a2.8 2.8 0 0 0 2.29 2.3zm.46-3.76a1.86 1.86 0 0 1-1.86-1.86c0-.26-.2-.47-.46-.47h-14.9c-.26 0-.47.2-.47.47 0 1.02-.84 1.86-1.86 1.86-.26 0-.47.2-.47.46v3.73c0 .26.2.47.47.47 1.02 0 1.86.83 1.86 1.86 0 .26.2.46.46.46h14.9c.26 0 .47-.2.47-.46 0-1.03.84-1.86 1.86-1.86.26 0 .47-.21.47-.47v-3.73c0-.25-.2-.46-.47-.46z"/><path id="d9ecb" d="M535.8 474.2v-6.4h6.4v6.4zm3.31-1.54a1.4 1.4 0 1 1 0-2.81 1.4 1.4 0 0 1 0 2.8zm0-3.74a2.33 2.33 0 1 0 0 4.66 2.33 2.33 0 0 0 0-4.66z"/><path id="d9ecc" d="M526.9 478.1v-17.2h28.2v17.2zm27.11-5h-.93v-9.77c0-.26-.2-.47-.47-.47h-20.95v-.93H554zm-1.85 1.87h-.93v-9.78c0-.26-.21-.46-.47-.46h-20.97v-.94h22.37zm-1.88 1.85h-22.35v-11.16h22.35zm4.2-15.82h-23.29c-.26 0-.46.2-.46.47v1.4h-1.4c-.26 0-.47.2-.47.46v1.4h-1.4c-.25 0-.46.2-.46.46v12.1c0 .27.2.48.47.48h23.28c.26 0 .47-.21.47-.47v-1.4h1.4c.25 0 .46-.2.46-.46v-1.4h1.4c.25 0 .46-.2.46-.47v-12.1c0-.26-.2-.47-.46-.47z"/><path id="d9ecd" d="M539.8 489.16v-10.32h15.4v10.32zm9.56-1.68v-1.8c0-.26-.21-.47-.47-.47h-7.45v-2.79h7.45c.26 0 .47-.2.47-.47v-1.4l4.37 3.29zm5.4-4.03l-5.59-4.2a.46.46 0 0 0-.74.38v1.86h-7.45c-.26 0-.47.2-.47.46v3.73c0 .26.2.47.47.47h7.45v2.32a.47.47 0 0 0 .76.36l5.59-4.65a.47.47 0 0 0-.02-.73z"/><path id="d9ece" d="M535.9 487.1v-6.2h4.2v6.2zm2.74-1.87h-.93v-2.8h.93zm.47-3.74h-1.86c-.26 0-.47.2-.47.47v3.72c0 .26.2.47.47.47h1.86c.26 0 .46-.21.46-.47v-3.72c0-.26-.2-.47-.46-.47z"/><path id="d9ecf" d="M531.9 487.1v-6.2h3.2v6.2zm2.08-1.87h-.93v-2.8h.93zm.47-3.74h-1.86c-.26 0-.47.2-.47.47v3.72c0 .26.2.47.47.47h1.86c.26 0 .46-.21.46-.47v-3.72c0-.26-.2-.47-.46-.47z"/><path id="d9ecg" d="M526.9 487.1v-6.2h3.2v6.2zm1.96-1.87h-.93v-2.8h.93zm.47-3.74h-1.86c-.26 0-.47.2-.47.47v3.72c0 .26.2.47.47.47h1.86c.26 0 .46-.21.46-.47v-3.72c0-.26-.2-.47-.46-.47z"/><path id="d9ech" d="M548.42 472.68a2.8 2.8 0 0 0-2.3 2.3h-14.04a2.8 2.8 0 0 0-2.29-2.3v-2.87a2.8 2.8 0 0 0 2.3-2.29h14.04a2.8 2.8 0 0 0 2.29 2.3zm.46-3.76a1.86 1.86 0 0 1-1.86-1.86c0-.26-.2-.47-.46-.47h-14.9c-.26 0-.47.2-.47.47 0 1.02-.84 1.86-1.86 1.86-.26 0-.47.2-.47.46v3.73c0 .26.2.47.47.47 1.02 0 1.86.83 1.86 1.86 0 .26.2.46.46.46h14.9c.26 0 .47-.2.47-.46 0-1.03.84-1.86 1.86-1.86.26 0 .47-.21.47-.47v-3.73c0-.25-.2-.46-.47-.46z"/><path id="d9ecj" d="M539.11 472.66a1.4 1.4 0 1 1 0-2.81 1.4 1.4 0 0 1 0 2.8zm0-3.74a2.33 2.33 0 1 0 0 4.66 2.33 2.33 0 0 0 0-4.66z"/><path id="d9ecl" d="M554.01 473.1h-.93v-9.77c0-.26-.2-.47-.47-.47h-20.95v-.93H554zm-1.85 1.87h-.93v-9.78c0-.26-.21-.46-.47-.46h-20.97v-.94h22.37zm-1.88 1.85h-22.35v-11.16h22.35zm4.2-15.82h-23.29c-.26 0-.46.2-.46.47v1.4h-1.4c-.26 0-.47.2-.47.46v1.4h-1.4c-.25 0-.46.2-.46.46v12.1c0 .27.2.48.47.48h23.28c.26 0 .47-.21.47-.47v-1.4h1.4c.25 0 .46-.2.46-.46v-1.4h1.4c.25 0 .46-.2.46-.47v-12.1c0-.26-.2-.47-.46-.47z"/><path id="d9ecn" d="M549.36 487.48v-1.8c0-.26-.21-.47-.47-.47h-7.45v-2.79h7.45c.26 0 .47-.2.47-.47v-1.4l4.37 3.29zm5.4-4.03l-5.59-4.2a.46.46 0 0 0-.74.38v1.86h-7.45c-.26 0-.47.2-.47.46v3.73c0 .26.2.47.47.47h7.45v2.32a.47.47 0 0 0 .76.36l5.59-4.65a.47.47 0 0 0-.02-.73z"/><path id="d9ecp" d="M538.64 485.23h-.93v-2.8h.93zm.47-3.74h-1.86c-.26 0-.47.2-.47.47v3.72c0 .26.2.47.47.47h1.86c.26 0 .46-.21.46-.47v-3.72c0-.26-.2-.47-.46-.47z"/><path id="d9ecr" d="M533.98 485.23h-.93v-2.8h.93zm.47-3.74h-1.86c-.26 0-.47.2-.47.47v3.72c0 .26.2.47.47.47h1.86c.26 0 .46-.21.46-.47v-3.72c0-.26-.2-.47-.46-.47z"/><path id="d9ect" d="M528.86 485.23h-.93v-2.8h.93zm.47-3.74h-1.86c-.26 0-.47.2-.47.47v3.72c0 .26.2.47.47.47h1.86c.26 0 .46-.21.46-.47v-3.72c0-.26-.2-.47-.46-.47z"/><clipPath id="d9eci"><use fill="#fff" xlink:href="#d9eca"/></clipPath><clipPath id="d9eck"><use fill="#fff" xlink:href="#d9ecb"/></clipPath><clipPath id="d9ecm"><use fill="#fff" xlink:href="#d9ecc"/></clipPath><clipPath id="d9eco"><use fill="#fff" xlink:href="#d9ecd"/></clipPath><clipPath id="d9ecq"><use fill="#fff" xlink:href="#d9ece"/></clipPath><clipPath id="d9ecs"><use fill="#fff" xlink:href="#d9ecf"/></clipPath><clipPath id="d9ecu"><use fill="#fff" xlink:href="#d9ecg"/></clipPath></defs><g><g transform="translate(-526 -460)"><g><use fill="#a9abb4" xlink:href="#d9ech"/><use fill="#fff" fill-opacity="0" stroke="#a9abb4" stroke-miterlimit="50" stroke-width=".4" clip-path="url(&quot;#d9eci&quot;)" xlink:href="#d9ech"/></g><g><use fill="#a9abb4" xlink:href="#d9ecj"/><use fill="#fff" fill-opacity="0" stroke="#a9abb4" stroke-miterlimit="50" stroke-width=".4" clip-path="url(&quot;#d9eck&quot;)" xlink:href="#d9ecj"/></g><g><use fill="#a9abb4" xlink:href="#d9ecl"/><use fill="#fff" fill-opacity="0" stroke="#a9abb4" stroke-miterlimit="50" stroke-width=".4" clip-path="url(&quot;#d9ecm&quot;)" xlink:href="#d9ecl"/></g><g><use fill="#a9abb4" xlink:href="#d9ecn"/><use fill="#fff" fill-opacity="0" stroke="#a9abb4" stroke-miterlimit="50" stroke-width=".4" clip-path="url(&quot;#d9eco&quot;)" xlink:href="#d9ecn"/></g><g><use fill="#a9abb4" xlink:href="#d9ecp"/><use fill="#fff" fill-opacity="0" stroke="#a9abb4" stroke-miterlimit="50" stroke-width=".4" clip-path="url(&quot;#d9ecq&quot;)" xlink:href="#d9ecp"/></g><g><use fill="#a9abb4" xlink:href="#d9ecr"/><use fill="#fff" fill-opacity="0" stroke="#a9abb4" stroke-miterlimit="50" stroke-width=".4" clip-path="url(&quot;#d9ecs&quot;)" xlink:href="#d9ecr"/></g><g><use fill="#a9abb4" xlink:href="#d9ect"/><use fill="#fff" fill-opacity="0" stroke="#a9abb4" stroke-miterlimit="50" stroke-width=".4" clip-path="url(&quot;#d9ecu&quot;)" xlink:href="#d9ect"/></g></g></g></svg>