<svg xmlns="http://www.w3.org/2000/svg" xmlns:xlink="http://www.w3.org/1999/xlink" width="18" height="18" viewBox="0 0 18 18">
  <defs>
    <path id="c2bsa" d="M788.07 287.47h-1.69v2.59h1.61c.2 0 .45-.02.62-.1.45-.18.7-.67.7-1.21.01-.75-.45-1.28-1.24-1.28z"/>
    <path id="c2bsb" d="M788.99 285.05c0-.43-.17-.8-.51-.99-.19-.1-.45-.13-.75-.13h-1.35v2.27h1.54c.67 0 1.07-.47 1.07-1.15z"/>
    <path id="c2bsc" d="M789.23 291.2c-.38.1-.72.14-1.09.14v1.22c0 .06-.04.1-.1.1h-.69c-.05 0-.1-.04-.1-.1v-1.22h-.9v1.22c0 .06-.05.1-.1.1h-.7c-.05 0-.09-.04-.09-.1v-1.22h-1.6a.17.17 0 0 1-.16-.16v-.87c0-.09.07-.16.17-.16h.37c.28 0 .49-.23.49-.5v-5.3a.48.48 0 0 0-.49-.48h-.37a.17.17 0 0 1-.17-.17v-.86c0-.1.07-.17.17-.17h1.6v-1.22c0-.06.03-.1.08-.1h.7c.05 0 .1.04.1.1v1.22h.9v-1.22c0-.06.05-.1.1-.1h.7c.05 0 .09.04.09.1v1.24c.45.01.8.07 1.16.22.79.3 1.33 1.03 1.33 2 0 .83-.37 1.5-1.07 1.86v.02c.98.3 1.4 1.14 1.4 2.06a2.48 2.48 0 0 1-1.73 2.34zM787 278.08a8.91 8.91 0 1 0 .01 17.83 8.91 8.91 0 0 0-.01-17.83z"/>
  </defs>
  <g>
    <g transform="translate(-778 -278)">
      <use fill="#313747" xlink:href="#c2bsa"/>
    </g>
    <g transform="translate(-778 -278)">
      <use fill="#313747" xlink:href="#c2bsb"/>
    </g>
    <g transform="translate(-778 -278)">
      <use fill="#313747" xlink:href="#c2bsc"/>
    </g>
  </g>
</svg>