<svg xmlns="http://www.w3.org/2000/svg" xmlns:xlink="http://www.w3.org/1999/xlink" width="10.91" height="10.91" viewBox="0 0 10.91 10.91"><defs><path id="yod0a" d="M1034.87 220.07a1.22 1.22 0 0 0 1.73 0l3.37-3.38 3.38 3.38a1.22 1.22 0 0 0 1.73 0c.47-.47.47-1.25 0-1.72l-3.4-3.37 3.4-3.4c.47-.46.47-1.24 0-1.7a1.22 1.22 0 0 0-1.71 0l-3.4 3.38-3.37-3.37a1.22 1.22 0 0 0-1.71 0 1.22 1.22 0 0 0 0 1.71l3.37 3.38-3.39 3.39a1.2 1.2 0 0 0 0 1.7z"/></defs><g><g transform="translate(-1034.52 -209.52)"><use xlink:href="#yod0a"/></g></g></svg>