<?xml version="1.0" encoding="UTF-8"?>
<svg width="15px" height="17px" viewBox="0 0 15 17" version="1.1" xmlns="http://www.w3.org/2000/svg" xmlns:xlink="http://www.w3.org/1999/xlink">
    <!-- Generator: Sketch 51.2 (57519) - http://www.bohemiancoding.com/sketch -->
    <title>noun_604073_cc</title>
    <desc>Created with Sketch.</desc>
    <defs></defs>
    <g id="Desktop" stroke="none" stroke-width="1" fill="none" fill-rule="evenodd">
        <g id="2.-Default-BTC.ETH-assets" transform="translate(-946.000000, -520.000000)" fill="currentColor" fill-rule="nonzero" stroke="currentColor" stroke-width="0.4">
            <g id="Group" transform="translate(225.000000, 95.000000)">
                <g id="Window">
                    <g id="Group-5" transform="translate(71.000000, 41.000000)">
                        <g id="Group-Copy-3" transform="translate(209.000000, 284.000000)">
                            <g id="OTN" transform="translate(22.000000, 23.000000)">
                                <g id="Group-2-Copy" transform="translate(408.000000, 66.000000)">
                                    <g id="noun_604073_cc" transform="translate(11.000000, 12.000000)">
                                        <g id="Group">
                                            <path d="M7.15603601,12.153752 C6.87572081,12.1508626 6.62396171,11.8911555 6.62978815,11.6108858 L6.62978815,1.87031498 L3.63848455,4.86161858 C3.52510121,4.97964984 3.36368764,5.03890293 3.20086791,5.02226266 C2.99630561,5.00033187 2.82273993,4.86238581 2.75519785,4.66805423 C2.68765578,4.47372265 2.7382535,4.25786614 2.8851192,4.11379268 L6.78489278,0.214019099 C6.88468177,0.113903108 7.0202211,0.0576309596 7.16157546,0.0576309596 C7.30292981,0.0576309596 7.43846914,0.113903108 7.53825813,0.214019099 L11.4380317,4.11379268 C11.5863055,4.24520472 11.6492403,4.44814337 11.6013395,4.64039254 C11.5534388,4.83264171 11.4026441,4.98232758 11.2100467,5.02880824 C11.0174492,5.0752889 10.8149806,5.01085811 10.6846664,4.86161858 L7.69336276,1.87031498 L7.69336276,11.6108858 C7.69926738,11.8948478 7.44004375,12.1567424 7.15603601,12.153752 Z M1.01130316,11.4862344 C0.857163871,11.4878221 0.710062163,11.5509926 0.602770686,11.6616722 C0.495479208,11.7723519 0.436911243,11.9213459 0.440115091,12.07546 L0.440115091,14.7690627 C0.440146962,15.0878286 0.698549794,15.3462314 1.01731567,15.3462633 L13.330928,15.3462633 C13.6496939,15.3462314 13.9080967,15.0878286 13.9081286,14.7690627 L13.9081286,12.07546 C13.9110724,11.8673008 13.801707,11.6736815 13.6219105,11.5687427 C13.4421139,11.463804 13.2197421,11.463804 13.0399455,11.5687427 C12.8601489,11.6736815 12.7507835,11.8673008 12.7537274,12.07546 L12.7537274,14.1918622 L1.59451624,14.1918622 L1.59451624,12.07546 C1.59776382,11.9192604 1.5375595,11.7684148 1.42765378,11.6573761 C1.31774806,11.5463373 1.1675279,11.484589 1.01130316,11.4862344 Z" id="Shape"></path>
                                        </g>
                                    </g>
                                </g>
                            </g>
                        </g>
                    </g>
                </g>
            </g>
        </g>
    </g>
</svg>