<svg xmlns="http://www.w3.org/2000/svg" xmlns:xlink="http://www.w3.org/1999/xlink" width="64" height="63" viewBox="0 0 64 63"><defs><path id="rgu1a" d="M799.95 281.18c-1-.21-1.92.07-2.7.71-.57.5-2.49 2.85-2.2 3.49a8.31 8.31 0 0 1-.79-1.64 7.24 7.24 0 0 0-1.28-1.63 3.2 3.2 0 0 0-2.63-.71c-1.28.28-2.13 1.42-2.77 2.49-.29.5-.5 1.35-.85 1.84-.08.72-.29.79-.57.29-.22-.57-.43-1.14-.57-1.78-.64-1.85-2.14-4.7-4.48-2.99a6.21 6.21 0 0 0-1.57 2.2c-.5.93-.7 2.5-1.63 1.5-1.35-1.56-1.5-4.55-4.34-4.05-2.99.5-3.27 4.27-2.77 6.61.35 1.5 2.63.86 2.34-.64-.07-.42-.57-4.05 1.21-3.48.29.07.57.92.71 1.14.36.7.64 1.49 1.14 2.13.78 1 1.92 1.56 3.13 1.07 1.28-.57 1.78-2.07 2.42-3.28.07-.14.35-.92.5-1 .64-.13 1 1.43 1.13 1.79.29 1 .57 2.06 1.35 2.77 1.07 1 2.5 1.07 3.49 0 .85-.92.85-2.28 1.7-3.2 1.78-2 2.42.36 3.13 1.56.79 1.36 2 2.2 3.42.93.7-.71 1-1.78 1.56-2.63 1.64-2.56 3.49.57 3.56 2.34.07 1.57 2.49 1.57 2.42 0-.29-2.2-1.5-5.26-4.06-5.83z"/><path id="rgu1b" d="M772.93 271.23c.42-.57.78-1.07 1.28-1.63.42.5.85 1.06 1.28 1.63.85 1.28 2.98.07 2.06-1.2-.5-.79-1.07-1.43-1.7-2.14.49-.5.99-.93 1.48-1.35 1.21-1-.5-2.7-1.7-1.7-.5.42-1 .84-1.42 1.27-.5-.43-.93-.92-1.43-1.28-1.13-1-2.84.71-1.7 1.7.5.43 1 .93 1.49 1.36l-1.7 2.13c-.86 1.28 1.2 2.5 2.06 1.21z"/><path id="rgu1c" d="M798.39 271.23c.42-.57.78-1.07 1.28-1.63.42.5.85 1.06 1.28 1.63.85 1.28 2.98.07 2.06-1.2-.5-.79-1.07-1.43-1.7-2.14.49-.5.99-.93 1.48-1.35 1.21-1-.5-2.7-1.7-1.7-.5.42-1 .84-1.42 1.27-.5-.43-.93-.92-1.43-1.28-1.13-1-2.84.71-1.7 1.7.5.43 1 .93 1.49 1.36l-1.7 2.13c-.93 1.28 1.13 2.5 2.06 1.21z"/><path id="rgu1d" d="M815.8 264.12a3.38 3.38 0 0 0-1.77 2.99v16.92c0 1.28.71 2.42 1.78 3v10.02c0 2.84-2.35 5.19-5.2 5.19h-45.36a5.22 5.22 0 0 1-5.2-5.2v-41.66c0-.93 2.35-3.2 5.2-3.2h45.37c2.84 0 5.19 2.34 5.19 5.19zm-51.4-16.64h47.07c.43 0 .78.36.78.79 0 .42-.35.78-.78.78h-47.08a.79.79 0 0 1-.78-.78c0-.43.36-.79.78-.79zm54.32 16.5v-12.44a8.1 8.1 0 0 0-8.1-8.11h-45.37a8.1 8.1 0 0 0-8.11 8.1v45.52a8.1 8.1 0 0 0 8.1 8.1h45.38a8.1 8.1 0 0 0 8.1-8.1v-9.89a3.35 3.35 0 0 0 2.14-3.2v-16.85c0-1.42-.93-2.63-2.14-3.13z"/></defs><g><g opacity=".43" transform="translate(-757 -243)"><use fill="#161d31" xlink:href="#rgu1a"/></g><g opacity=".43" transform="translate(-757 -243)"><use fill="#161d31" xlink:href="#rgu1b"/></g><g opacity=".43" transform="translate(-757 -243)"><use fill="#161d31" xlink:href="#rgu1c"/></g><g opacity=".43" transform="translate(-757 -243)"><use fill="#161d31" xlink:href="#rgu1d"/></g></g></svg>