<?xml version="1.0" encoding="UTF-8"?>
<svg width="15px" height="16px" viewBox="0 0 15 16" version="1.1" xmlns="http://www.w3.org/2000/svg" xmlns:xlink="http://www.w3.org/1999/xlink">
    <!-- Generator: Sketch 50.2 (55047) - http://www.bohemiancoding.com/sketch -->
    <title>Group 4</title>
    <desc>Created with Sketch.</desc>
    <defs></defs>
    <g id="Page-1" stroke="none" stroke-width="1" fill="none" fill-rule="evenodd">
        <g id="18.1-History-tab" transform="translate(-749.000000, -527.000000)" fill="currentColor" fill-rule="nonzero" stroke="currentColor" stroke-width="0.2">
            <g id="Group" transform="translate(226.000000, 82.000000)">
                <g id="Window">
                    <g id="Group-5" transform="translate(71.000000, 41.000000)">
                        <g id="Group-Copy-3" transform="translate(229.000000, 123.000000)">
                            <g id="Group-9" transform="translate(2.000000, 264.000000)">
                                <g id="Group-4" transform="translate(221.000000, 17.000000)">
                                    <g id="right-arrow" transform="translate(0.270353, 0.000000)">
                                        <path d="M13.6546574,3.74381768 C13.6545296,3.74368994 12.5413414,2.63639027 10.3150929,0.421918686 C10.0649498,0.173109189 9.66035648,0.174035318 9.41136367,0.4240903 C9.16240281,0.674113346 9.16336133,1.07851261 9.41350437,1.32735404 L11.6553023,3.55721854 L0.63901658,3.55721854 C0.286087723,3.55721854 0,3.84316903 0,4.19592859 C0,4.54868814 0.286087723,4.83463863 0.63901658,4.83463863 L11.6552704,4.83463863 L9.41353632,7.06450313 C9.16339328,7.31334456 9.16243476,7.71774382 9.41139562,7.96776687 C9.66038843,8.21785379 10.0650137,8.21871605 10.3151248,7.96993848 L13.6541142,4.64864626 C13.9049602,4.39836773 13.9041614,3.99265911 13.6546574,3.74381768 Z" id="Shape"></path>
                                    </g>
                                    <g id="right-arrow" transform="translate(7.144700, 11.679263) scale(-1, 1) translate(-7.144700, -11.679263) translate(0.176959, 7.550230)">
                                        <path d="M13.6546574,3.74550123 C13.6545296,3.74537343 12.5413414,2.63754233 10.3150929,0.422007949 C10.0649498,0.17307904 9.66035648,0.174005614 9.41136367,0.424180605 C9.16240281,0.674323645 9.16336133,1.07891699 9.41350437,1.32787785 L11.6553023,3.55881254 L0.63901658,3.55881254 C0.286087723,3.55881254 0,3.84490026 0,4.19782912 C0,4.55075797 0.286087723,4.8368457 0.63901658,4.8368457 L11.6552704,4.8368457 L9.41353632,7.06778038 C9.16339328,7.31674124 9.16243476,7.72133459 9.41139562,7.97147763 C9.66038843,8.22168457 10.0650137,8.22254724 10.3151248,7.97365028 L13.6541142,4.65076407 C13.9049602,4.40036542 13.9041614,3.99446209 13.6546574,3.74550123 Z" id="Shape"></path>
                                    </g>
                                </g>
                            </g>
                        </g>
                    </g>
                </g>
            </g>
        </g>
    </g>
</svg>