<?xml version="1.0" encoding="UTF-8"?>
<svg width="14px" height="16px" viewBox="0 0 14 16" version="1.1" xmlns="http://www.w3.org/2000/svg" xmlns:xlink="http://www.w3.org/1999/xlink">
    <!-- Generator: Sketch 51.2 (57519) - http://www.bohemiancoding.com/sketch -->
    <title>Group 4</title>
    <desc>Created with Sketch.</desc>
    <defs></defs>
    <g id="Desktop" stroke="none" stroke-width="1" fill="none" fill-rule="evenodd">
        <g id="2.-Default-BTC.ETH-assets" transform="translate(-986.000000, -521.000000)" fill="#318AF0" fill-rule="nonzero" stroke="#318AF0" stroke-width="0.2">
            <g id="Group" transform="translate(225.000000, 95.000000)">
                <g id="Window">
                    <g id="Group-5" transform="translate(71.000000, 41.000000)">
                        <g id="Group-Copy-3" transform="translate(209.000000, 284.000000)">
                            <g id="OTN" transform="translate(22.000000, 23.000000)">
                                <g id="Group-2-Copy-2" transform="translate(448.000000, 66.000000)">
                                    <g id="Group-4" transform="translate(10.500000, 12.000000)">
                                        <g id="right-arrow" transform="translate(0.761905, 0.000000)">
                                            <path d="M13.2279494,3.62845432 C13.2278256,3.62833051 12.1494245,2.55511914 9.99274621,0.4088202 C9.75042014,0.16767032 9.35847034,0.168567939 9.11725855,0.410924961 C8.87607772,0.653251031 8.87700629,1.04520084 9.11933236,1.28638167 L11.2910741,3.44759964 L0.619047312,3.44759964 C0.277147482,3.44759964 0,3.72474713 0,4.06664696 C0,4.40854679 0.277147482,4.68569427 0.619047312,4.68569427 L11.2910432,4.68569427 L9.11936331,6.84691224 C8.87703724,7.08809308 8.87610867,7.48004288 9.1172895,7.72236895 C9.35850129,7.96475693 9.75048205,7.96559264 9.99277717,7.72447371 L13.2274232,4.50542769 C13.4704302,4.262854 13.4696564,3.86963515 13.2279494,3.62845432 Z" id="Shape"></path>
                                        </g>
                                        <g id="right-arrow" transform="translate(7.171429, 11.314286) scale(-1, 1) translate(-7.171429, -11.314286) translate(0.171429, 7.314286)" opacity="0.4">
                                            <path d="M13.2279494,3.62845432 C13.2278256,3.62833051 12.1494245,2.55511914 9.99274621,0.4088202 C9.75042014,0.16767032 9.35847034,0.168567939 9.11725855,0.410924961 C8.87607772,0.653251031 8.87700629,1.04520084 9.11933236,1.28638167 L11.2910741,3.44759964 L0.619047312,3.44759964 C0.277147482,3.44759964 0,3.72474713 0,4.06664696 C0,4.40854679 0.277147482,4.68569427 0.619047312,4.68569427 L11.2910432,4.68569427 L9.11936331,6.84691224 C8.87703724,7.08809308 8.87610867,7.48004288 9.1172895,7.72236895 C9.35850129,7.96475693 9.75048205,7.96559264 9.99277717,7.72447371 L13.2274232,4.50542769 C13.4704302,4.262854 13.4696564,3.86963515 13.2279494,3.62845432 Z" id="Shape"></path>
                                        </g>
                                    </g>
                                </g>
                            </g>
                        </g>
                    </g>
                </g>
            </g>
        </g>
    </g>
</svg>