<?xml version="1.0" encoding="UTF-8"?>
<svg width="28px" height="31px" viewBox="0 0 28 31" version="1.1" xmlns="http://www.w3.org/2000/svg" xmlns:xlink="http://www.w3.org/1999/xlink">
    <!-- Generator: Sketch 51.2 (57519) - http://www.bohemiancoding.com/sketch -->
    <title>Group 4</title>
    <desc>Created with Sketch.</desc>
    <defs></defs>
    <g id="Desktop" stroke="none" stroke-width="1" fill="none" fill-rule="evenodd">
        <g id="18.2-History-tab-(hover)" transform="translate(-252.000000, -278.000000)" fill="#FFFFFF" fill-rule="nonzero" stroke="#FFFFFF" stroke-width="0.2">
            <g id="Group" transform="translate(226.000000, 82.000000)">
                <g id="Window">
                    <g id="Group-3-Copy" transform="translate(0.000000, 178.000000)">
                        <g id="Group-4" transform="translate(26.000000, 18.000000)">
                            <g id="right-arrow" transform="translate(0.523810, 0.000000)">
                                <path d="M26.4558987,7.25690863 C26.4556511,7.25666102 24.298849,5.11023827 19.9854924,0.817640401 C19.5008403,0.33534064 18.7169407,0.337135877 18.2345171,0.821849922 C17.7521554,1.30650206 17.7540126,2.09040167 18.2386647,2.57276334 L22.5821483,6.89519929 L1.23809462,6.89519929 C0.554294963,6.89519929 0,7.44949425 0,8.13329391 C0,8.81709357 0.554294963,9.37138854 1.23809462,9.37138854 L22.5820864,9.37138854 L18.2387266,13.6938245 C17.7540745,14.1761862 17.7522173,14.9600858 18.234579,15.4447379 C18.7170026,15.9295139 19.5009641,15.9311853 19.9855543,15.4489474 L26.4548464,9.01085538 C26.9408604,8.525708 26.9393128,7.7392703 26.4558987,7.25690863 Z" id="Shape"></path>
                            </g>
                            <g id="right-arrow" transform="translate(13.842857, 22.628571) scale(-1, 1) translate(-13.842857, -22.628571) translate(0.342857, 14.628571)" opacity="0.4">
                                <path d="M26.4558987,7.25690863 C26.4556511,7.25666102 24.298849,5.11023827 19.9854924,0.817640401 C19.5008403,0.33534064 18.7169407,0.337135877 18.2345171,0.821849922 C17.7521554,1.30650206 17.7540126,2.09040167 18.2386647,2.57276334 L22.5821483,6.89519929 L1.23809462,6.89519929 C0.554294963,6.89519929 0,7.44949425 0,8.13329391 C0,8.81709357 0.554294963,9.37138854 1.23809462,9.37138854 L22.5820864,9.37138854 L18.2387266,13.6938245 C17.7540745,14.1761862 17.7522173,14.9600858 18.234579,15.4447379 C18.7170026,15.9295139 19.5009641,15.9311853 19.9855543,15.4489474 L26.4548464,9.01085538 C26.9408604,8.525708 26.9393128,7.7392703 26.4558987,7.25690863 Z" id="Shape"></path>
                            </g>
                        </g>
                    </g>
                </g>
            </g>
        </g>
    </g>
</svg>