<?xml version="1.0" encoding="UTF-8"?>
<svg width="20px" height="20px" viewBox="0 0 20 20" version="1.1" xmlns="http://www.w3.org/2000/svg" xmlns:xlink="http://www.w3.org/1999/xlink">
    <!-- Generator: Sketch 50.2 (55047) - http://www.bohemiancoding.com/sketch -->
    <title>Group 2</title>
    <desc>Created with Sketch.</desc>
    <defs></defs>
    <g id="Page-1" stroke="none" stroke-width="1" fill="none" fill-rule="evenodd">
        <g id="18.1-History-tab" transform="translate(-746.000000, -580.000000)">
            <g id="Group" transform="translate(226.000000, 82.000000)">
                <g id="Window">
                    <g id="Group-5" transform="translate(71.000000, 41.000000)">
                        <g id="Group-Copy-3" transform="translate(229.000000, 123.000000)">
                            <g id="Group-9" transform="translate(2.000000, 319.000000)">
                                <g id="Group-2" transform="translate(220.000000, 17.000000)">
                                    <circle id="Oval-2" stroke="#171E32" stroke-width="1.4" cx="8" cy="8" r="8.7"></circle>
                                    <path d="M3.88614132,12.1131177 C4.0839843,12.3110391 4.33835384,12.4099998 4.59272339,12.4099998 C4.84709293,12.4099998 5.10146248,12.3110391 5.29930545,12.1131177 L8.05497551,9.35635452 L10.8106456,12.1131177 C11.0084885,12.3110391 11.2628581,12.4099998 11.5172276,12.4099998 C11.7715972,12.4099998 12.0259667,12.3110391 12.2238097,12.1131177 C12.605364,11.731412 12.605364,11.0952359 12.2238097,10.7135302 L9.454008,7.95676708 L12.2238097,5.18586669 C12.605364,4.80416102 12.605364,4.16798492 12.2238097,3.78627925 C11.8422554,3.40457358 11.2063315,3.40457358 10.8247772,3.78627925 L8.05497551,6.55717964 L5.29930545,3.8004165 C4.91775114,3.41871083 4.28182728,3.41871083 3.90027296,3.8004165 C3.51871865,4.18212216 3.51871865,4.81829827 3.90027296,5.20000394 L6.65594302,7.95676708 L3.88614132,10.7276675 C3.50458701,11.1093731 3.50458701,11.731412 3.88614132,12.1131177 Z" id="Shape" fill="#171E32" fill-rule="nonzero"></path>
                                </g>
                            </g>
                        </g>
                    </g>
                </g>
            </g>
        </g>
    </g>
</svg>