<svg xmlns="http://www.w3.org/2000/svg" xmlns:xlink="http://www.w3.org/1999/xlink" width="18" height="18" viewBox="0 0 18 18"><defs><path id="jbs1a" d="M711.07 656.1c0 1.09-.88 1.97-1.96 1.97h-10.2a1.96 1.96 0 0 1-1.97-1.96v-10.2c0-1.09.88-1.97 1.96-1.97h10.2c1.09 0 1.97.88 1.97 1.96v10.2zm-1.96-13.04h-10.2a2.84 2.84 0 0 0-2.85 2.84v10.2a2.84 2.84 0 0 0 2.84 2.85h10.2a2.84 2.84 0 0 0 2.85-2.84v-10.2a2.84 2.84 0 0 0-2.84-2.85z"/><path id="jbs1b" d="M700.77 649.7c-.2-.2-.29-.46-.29-.77 0-.3.1-.55.29-.76.19-.2.43-.3.73-.3s.55.1.74.3c.19.2.28.46.28.76s-.1.56-.28.76c-.2.2-.44.31-.74.31s-.54-.1-.73-.3zm2.19.68c.38-.39.58-.87.58-1.44s-.2-1.05-.58-1.44a1.95 1.95 0 0 0-1.44-.58c-.57 0-1.05.2-1.44.58-.39.39-.58.87-.58 1.44s.2 1.05.58 1.44c.39.38.87.58 1.44.58s1.05-.2 1.44-.58z"/><path id="jbs1c" d="M705.63 646.98l-1.63 2.88-2.93 5.17h1.32l1.6-2.84 2.95-5.21z"/><path id="jbs1d" d="M707.19 653.8c-.19.2-.43.3-.72.3-.3 0-.53-.1-.72-.3-.18-.19-.27-.44-.27-.73 0-.3.09-.54.27-.74.19-.2.43-.3.71-.3.3 0 .54.1.73.3.18.2.27.44.27.74s-.09.54-.27.74zm.74-2.16a1.94 1.94 0 0 0-1.43-.57c-.57 0-1.04.2-1.43.57-.38.39-.57.86-.57 1.43s.2 1.05.57 1.43c.39.38.86.57 1.43.57s1.05-.19 1.43-.57c.38-.38.57-.86.57-1.43s-.19-1.04-.57-1.43z"/></defs><g><g  transform="translate(-695 -642)"><g ><g ><use fill="currentColor" xlink:href="#jbs1a"/><use fill="currentColor" fill-opacity="0" stroke="currentColor" stroke-miterlimit="50" stroke-width=".4" xlink:href="#jbs1a"/></g><g ><g ><use fill="currentColor" xlink:href="#jbs1b"/><use fill="currentColor" fill-opacity="0" stroke="currentColor" stroke-miterlimit="50" stroke-width=".4" xlink:href="#jbs1b"/></g><g ><use fill="currentColor" xlink:href="#jbs1c"/><use fill="currentColor" fill-opacity="0" stroke="currentColor" stroke-miterlimit="50" stroke-width=".4" xlink:href="#jbs1c"/></g><g ><use fill="currentColor" xlink:href="#jbs1d"/><use fill="currentColor" fill-opacity="0" stroke="currentColor" stroke-miterlimit="50" stroke-width=".4" xlink:href="#jbs1d"/></g></g></g></g></g></svg>