<svg xmlns="http://www.w3.org/2000/svg" xmlns:xlink="http://www.w3.org/1999/xlink" width="12" height="10" viewBox="0 0 12 10"><defs><path id="og8fa" d="M166 669.33V674c0 .74-.63 1.33-1.41 1.33h-4.94l-2.93 2.57a.37.37 0 0 1-.5 0 .32.32 0 0 1-.1-.23v-2.34h-.7c-.79 0-1.42-.6-1.42-1.33v-4.67c0-.73.63-1.33 1.41-1.33h9.18c.78 0 1.41.6 1.41 1.33zm-9.98.87c0 .44.36.8.8.8h6.5a.8.8 0 1 0 0-1.6h-6.5a.8.8 0 0 0-.8.8zm0 2.8c0 .44.36.8.8.8h6.5a.8.8 0 1 0 0-1.6h-6.5a.8.8 0 0 0-.8.8z"/></defs><g><g transform="translate(-154 -668)"><use fill="#fff" xlink:href="#og8fa"/></g></g></svg>