<svg xmlns="http://www.w3.org/2000/svg" xmlns:xlink="http://www.w3.org/1999/xlink" width="20" height="17" viewBox="0 0 20 17"><defs><path id="ww21a" d="M1034.1 521.06a7.59 7.59 0 0 0-7.57 7.13l-1.37-1.36a.62.62 0 0 0-.87.87l2.5 2.52c.25.23.63.23.87 0l2.53-2.52a.62.62 0 0 0-.87-.87l-1.55 1.55a6.35 6.35 0 1 1 6.32 6.61.62.62 0 1 0 0 1.24 7.59 7.59 0 0 0 0-15.17z"/><path id="ww21b" d="M1033.86 525.07a.62.62 0 0 0-.62.62v3.58c0 .34.28.62.62.62h2.83a.62.62 0 0 0 0-1.24h-2.21v-2.96a.62.62 0 0 0-.62-.62z"/></defs><g><g transform="translate(-1023 -520)"><use fill="#308af0" xlink:href="#ww21a"/><use fill="#fff" fill-opacity="0" stroke="#308af0" stroke-miterlimit="50" stroke-width=".4" xlink:href="#ww21a"/></g><g transform="translate(-1023 -520)"><use fill="#308af0" xlink:href="#ww21b"/><use fill="#fff" fill-opacity="0" stroke="#308af0" stroke-miterlimit="50" stroke-width=".4" xlink:href="#ww21b"/></g></g></svg>