<?xml version="1.0" encoding="UTF-8"?>
<svg width="30px" height="29px" viewBox="0 0 30 29" version="1.1" xmlns="http://www.w3.org/2000/svg" xmlns:xlink="http://www.w3.org/1999/xlink">
    <!-- Generator: Sketch 50.2 (55047) - http://www.bohemiancoding.com/sketch -->
    <title>Group</title>
    <desc>Created with Sketch.</desc>
    <defs></defs>
    <g id="Page-1" stroke="none" stroke-width="0.5" fill="#9b9ea6" fill-rule="evenodd">
        <g id="18.3-History-tab-(open)" transform="translate(-236.000000, -364.000000)" fill="#9b9ea6" fill-rule="nonzero">
            <g id="Group" transform="translate(211.000000, 83.000000)">
                <g id="Window">
                    <g id="Group-3-Copy" transform="translate(0.000000, 262.000000)">
                        <g id="noun_923277_cc" transform="translate(25.000000, 19.000000)">
                            <g id="Group">
                                <path d="M20.76,1.4 C17.28,-0.16 13.32,-0.28 9.72,1.16 C7.32,2.12 5.16,3.68 3.6,5.72 L3,3.56 C2.88,2.84 2.28,2.48 1.56,2.6 C0.96,2.84 0.6,3.44 0.72,4.04 L1.92,8.96 C2.04,9.56 2.52,9.92 3.12,9.92 C3.24,9.92 3.36,9.92 3.36,9.92 L8.28,8.72 C8.88,8.6 9.36,7.88 9.12,7.28 C9.12,6.56 8.4,6.2 7.8,6.44 L5.76,6.92 C7.08,5.36 8.64,4.16 10.56,3.44 C13.56,2.24 16.8,2.36 19.8,3.68 C22.68,5 24.96,7.28 26.16,10.28 C27.36,13.28 27.24,16.52 25.92,19.52 C24.6,22.52 22.32,24.68 19.32,25.88 C15.12,27.44 10.44,26.72 7.08,23.72 C5.64,22.4 4.44,20.84 3.72,19.04 C3.48,18.44 2.76,18.08 2.16,18.32 C1.56,18.56 1.2,19.28 1.44,19.88 C2.28,22.04 3.72,24.08 5.4,25.52 C8.04,27.8 11.4,29 14.88,29 C16.68,29 18.36,28.64 20.04,28.04 C23.64,26.6 26.4,23.96 27.96,20.48 C29.52,17 29.64,13.04 28.2,9.44 C26.76,5.84 24.36,2.96 20.76,1.4 Z" id="Shape"></path>
                                <path d="M15,7.4 C14.28,7.4 13.8,7.88 13.8,8.6 L13.8,15.8 C13.8,16.16 13.92,16.52 14.28,16.76 L19.08,20.36 C19.32,20.48 19.56,20.6 19.8,20.6 C20.16,20.6 20.52,20.48 20.76,20.12 C21.12,19.64 21,18.8 20.52,18.44 L16.2,15.2 L16.2,8.6 C16.2,7.88 15.72,7.4 15,7.4 Z" id="Shape"></path>
                            </g>
                        </g>
                    </g>
                </g>
            </g>
        </g>
    </g>
</svg>