<?xml version="1.0" encoding="UTF-8"?>
<svg width="19px" height="17px" viewBox="0 0 19 17" version="1.1" xmlns="http://www.w3.org/2000/svg" xmlns:xlink="http://www.w3.org/1999/xlink">
    <!-- Generator: Sketch 51.2 (57519) - http://www.bohemiancoding.com/sketch -->
    <title>Group</title>
    <desc>Created with Sketch.</desc>
    <defs></defs>
    <g id="Desktop" stroke="none" stroke-width="1" fill="none" fill-rule="evenodd">
        <g id="2.-Default-BTC.ETH-assets" transform="translate(-1023.000000, -520.000000)" fill="#318AF0" fill-rule="nonzero" stroke="#318AF0" stroke-width="0.4">
            <g id="Group" transform="translate(225.000000, 95.000000)">
                <g id="Window">
                    <g id="Group-5" transform="translate(71.000000, 41.000000)">
                        <g id="Group-Copy-3" transform="translate(209.000000, 284.000000)">
                            <g id="Group-7" transform="translate(510.000000, 89.000000)">
                                <g id="noun_1433902_cc" transform="translate(9.000000, 12.000000)">
                                    <g id="Group">
                                        <path d="M10.0878553,0.0620155039 C6.0772495,0.0657312221 2.76237999,3.1904033 2.52196382,7.19379845 L1.15762274,5.82945736 C0.910726428,5.64428513 0.565241452,5.66883799 0.347013882,5.88706556 C0.128786313,6.10529313 0.104233452,6.45077811 0.289405685,6.69767442 L2.79069767,9.21963824 C3.03184094,9.45600592 3.41777147,9.45600592 3.65891473,9.21963824 L6.18087855,6.69767442 C6.36605079,6.45077811 6.34149792,6.10529313 6.12327036,5.88706556 C5.90504279,5.66883799 5.55955781,5.64428513 5.3126615,5.82945736 L3.7622739,7.37984496 C3.90930379,3.91102053 6.8165459,1.20425004 10.2870224,1.30501668 C13.7574988,1.40578333 16.5027912,4.27667738 16.4483058,7.74818887 C16.3938203,11.2197004 13.5597847,14.0030267 10.0878553,13.994832 C9.74535313,13.994832 9.46770026,14.2724849 9.46770026,14.6149871 C9.46770026,14.9574893 9.74535313,15.2351421 10.0878553,15.2351421 C14.2777985,15.2351421 17.6744185,11.838522 17.6744185,7.64857881 C17.6744185,3.45863564 14.2777985,0.0620155663 10.0878553,0.0620155039 Z" id="Shape"></path>
                                        <path d="M9.86046512,4.07235142 C9.51796295,4.07235142 9.24031008,4.35000429 9.24031008,4.69250646 L9.24031008,8.26873385 C9.24031008,8.61123602 9.51796295,8.88888889 9.86046512,8.88888889 L12.6925065,8.88888889 C13.0350086,8.88888889 13.3126615,8.61123602 13.3126615,8.26873385 C13.3126615,7.92623168 13.0350086,7.64857881 12.6925065,7.64857881 L10.4806202,7.64857881 L10.4806202,4.69250646 C10.4806202,4.35000429 10.2029673,4.07235142 9.86046512,4.07235142 Z" id="Shape"></path>
                                    </g>
                                </g>
                            </g>
                        </g>
                    </g>
                </g>
            </g>
        </g>
    </g>
</svg>