<svg xmlns="http://www.w3.org/2000/svg" xmlns:xlink="http://www.w3.org/1999/xlink" width="18" height="18" viewBox="0 0 18 18"><defs><path id="57aka" d="M279.24 134.7h-1.08a.39.39 0 0 0-.36.36v4.14h-9v-14.4h9v4.14c0 .18.18.36.36.36h1.08c.18 0 .36-.18.36-.36v-5.04c0-.54-.36-.9-.9-.9h-10.8c-.54 0-.9.36-.9.9v16.2c0 .54.36.9.9.9h10.8c.54 0 .9-.36.9-.9v-5.04a.39.39 0 0 0-.36-.36z"/><path id="57akb" d="M284.73 131.37l-2.7-2.7a.87.87 0 0 0-1.26 0 .87.87 0 0 0 0 1.26l1.17 1.17h-6.84c-.54 0-.9.36-.9.9s.36.9.9.9h6.84l-1.17 1.17a.87.87 0 0 0 0 1.26c.18.18.63.54 1.26 0l2.7-2.7a.87.87 0 0 0 0-1.26z"/></defs><g><g opacity=".5" transform="translate(-267 -123)"><g opacity=".5"><use fill="#fff" xlink:href="#57aka"/></g><g opacity=".5"><use fill="#fff" xlink:href="#57akb"/></g></g></g></svg>