<svg xmlns="http://www.w3.org/2000/svg" xmlns:xlink="http://www.w3.org/1999/xlink" width="129" height="24" viewBox="0 0 129 24"><defs><path id="a4hua" d="M961 405v-14h14v14zm7-1a6 6 0 1 0 0-12 6 6 0 0 0 0 12z"/><path id="a4hub" d="M955 390a4 4 0 0 1 4-4h121a4 4 0 0 1 4 4v16a4 4 0 0 1-4 4H959a4 4 0 0 1-4-4z"/><path id="a4huc" d="M986 398c0-1.1.9-2 2-2h80a2 2 0 1 1 0 4h-80a2 2 0 0 1-2-2z"/><path id="a4hud" d="M986 398c0-1.1.9-2 2-2h35a2 2 0 1 1 0 4h-35a2 2 0 0 1-2-2z"/><path id="a4hue" d="M968 398a6 6 0 1 1 12 0 6 6 0 0 1-12 0z"/><path id="a4huf" d="M962 398a6 6 0 1 1 12 0 6 6 0 0 1-12 0z"/><clipPath id="a4hug"><use fill="#fff" xlink:href="#a4hua"/></clipPath></defs><g><g opacity=".5" transform="translate(-955 -386)"><g opacity=".5"><use fill="#717382" xlink:href="#a4hub"/></g><g opacity=".5"><use fill="#8b8ea1" xlink:href="#a4huc"/></g><g opacity=".5"><use fill="#bec0d1" xlink:href="#a4hud"/></g><g opacity=".5"><use fill="#bec0d1" xlink:href="#a4hue"/></g><g opacity=".5"><use fill="#bec0d1" xlink:href="#a4huf"/><use fill="#fff" fill-opacity="0" stroke="#717382" stroke-miterlimit="50" stroke-width="2" clip-path="url(&quot;#a4hug&quot;)" xlink:href="#a4huf"/></g></g></g></svg>