<svg xmlns="http://www.w3.org/2000/svg" xmlns:xlink="http://www.w3.org/1999/xlink" fill="currentColor" width="12" height="12" viewBox="0 0 12 12"><defs><path id="9sbpa" d="M634 478.9a4.9 4.9 0 1 0 0-9.8 4.9 4.9 0 0 0 0 9.8zm0-10.9a6 6 0 1 1 0 12 6 6 0 0 1 0-12zm-.7 6.6c.07-.23.15-.43.26-.61.1-.19.23-.35.38-.51l.4-.47c.12-.15.23-.3.31-.44.08-.15.13-.3.13-.47a.86.86 0 0 0-.25-.64.93.93 0 0 0-.68-.25c-.24 0-.45.06-.64.16s-.37.24-.54.42l-.73-.65c.24-.28.54-.51.87-.7.34-.17.71-.26 1.13-.26.3 0 .59.04.85.11.26.08.48.2.67.35.2.15.34.34.44.57.1.23.16.5.16.8 0 .23-.05.44-.13.63-.09.19-.2.37-.33.53-.13.17-.27.33-.42.49a3.9 3.9 0 0 0-.4.48c-.12.17-.21.35-.28.54a.95.95 0 0 0-.06.54h-1.15c-.04-.26-.04-.4.02-.63zm-.07 1.71a.82.82 0 0 1 .61-.24c.25 0 .45.08.61.24.17.16.25.37.25.62s-.08.46-.25.62a.84.84 0 0 1-.6.24.84.84 0 0 1-.62-.24.85.85 0 0 1-.23-.62c0-.25.08-.46.23-.62z"/></defs><g><g transform="translate(-628 -468)"><g><use xlink:href="#9sbpa"/></g></g></g></svg>