<svg xmlns="http://www.w3.org/2000/svg" xmlns:xlink="http://www.w3.org/1999/xlink" width="16" height="17" viewBox="0 0 16 17"><defs><path id="oc5ga" d="M529.01 220.49a.58.58 0 0 0-.57.59v2.7c0 .31.26.57.58.57h12.31c.32 0 .58-.26.58-.58v-2.7a.58.58 0 1 0-1.16 0v2.12H529.6v-2.11a.58.58 0 0 0-.58-.6zm6.15-11.43a.55.55 0 0 0-.53.54v9.74l-3-2.99a.53.53 0 1 0-.74.75l3.9 3.9a.53.53 0 0 0 .75 0l3.9-3.9a.53.53 0 1 0-.76-.75l-2.99 3v-9.75a.55.55 0 0 0-.53-.54z"/></defs><g><g transform="translate(-527 -208)"><g><use xlink:href="#oc5ga"/><use fill="#fff" fill-opacity="0" stroke="#161d31" stroke-miterlimit="50" stroke-width=".4" xlink:href="#oc5ga"/></g></g></g></svg>