<svg xmlns="http://www.w3.org/2000/svg" xmlns:xlink="http://www.w3.org/1999/xlink" width="18" height="16" viewBox="0 0 18 16"><defs><path id="mvsda" d="M543.5 210.78l-8.22 8.2-6.24-1.88zm-1.6 12.63l-5.76-3.96 8.35-8.33zm-5.82-.35l-.13-2.62 1.54 1.07zm-.94.3c.02.33.25.62.55.73.1.04.19.06.28.06.23 0 .45-.1.62-.29l1.66-1.82 3.16 2.2c.15.1.31.15.5.15a.9.9 0 0 0 .87-.7l2.99-14.11a.46.46 0 0 0-.17-.47.5.5 0 0 0-.5-.08l-16.57 7.26a.89.89 0 0 0 .1 1.65l6.33 1.92z"/></defs><g><g transform="translate(-528 -209)"><use fill="#161d31" xlink:href="#mvsda"/><use fill="#fff" fill-opacity="0" stroke="#161d31" stroke-miterlimit="50" stroke-width=".5" xlink:href="#mvsda"/></g></g></svg>