<svg xmlns="http://www.w3.org/2000/svg" xmlns:xlink="http://www.w3.org/1999/xlink" width="9" height="12" viewBox="0 0 9 12"><defs><path id="f70ya" d="M1109.36 203.42a.39.39 0 0 0-.39.39v4.93a.39.39 0 0 0 .78 0v-4.93a.39.39 0 0 0-.39-.4zm-2.23 0a.39.39 0 0 0-.39.39v4.93a.39.39 0 0 0 .78 0v-4.93a.39.39 0 0 0-.39-.4zm-1.57-.78h5.45v7.27h-5.45zm-.78-1.82h7.01v1.04h-7.01zm2.6-1.04h1.8v.26h-1.8zm0-.78a.77.77 0 0 0-.78.78v.26h-1.95c-.35 0-.65.3-.65.65v1.3c0 .35.3.65.65.65h.13v7.4c0 .35.3.65.65.65h5.71c.36 0 .65-.3.65-.65v-7.4h.13c.36 0 .65-.3.65-.65v-1.3c0-.35-.3-.65-.65-.65h-1.95v-.26a.77.77 0 0 0-.78-.78z"/></defs><g><g transform="translate(-1104 -199)"><g><use fill="currentColor" xlink:href="#f70ya"/></g><g/></g></g></svg>