<?xml version="1.0" encoding="UTF-8"?>
<svg width="471px" height="382px" viewBox="0 0 471 382" version="1.1" xmlns="http://www.w3.org/2000/svg" xmlns:xlink="http://www.w3.org/1999/xlink">
    <!-- Generator: Sketch 50.2 (55047) - http://www.bohemiancoding.com/sketch -->
    <title>Group 7</title>
    <desc>Created with Sketch.</desc>
    <defs></defs>
    <g id="Desktop" stroke="none" stroke-width="1" fill="none" fill-rule="evenodd" opacity="0.25">
        <g id="19.2-Error-(500)" transform="translate(-554.000000, -177.000000)">
            <g id="Group-7" transform="translate(554.000000, 177.000000)">
                <g id="noun_Space_198338" transform="translate(42.000000, 157.000000)" fill="#000000" fill-rule="nonzero">
                    <path d="M52.3673956,0 C49.813524,0 47.7347913,2.09040016 47.7347913,4.65875451 C47.7347913,4.91007009 47.7599685,5.15554112 47.7987026,5.39581701 C45.1570336,7.19074277 41.7025929,9.94157691 37.7484817,13.3996014 C35.0474203,12.1053586 32.0280933,11.378037 28.8422095,11.378037 C26.1204898,11.378037 23.5220739,11.9124885 21.137987,12.873592 C15.6209528,10.0617148 11.3905381,9.71299012 9.20205856,11.9137873 C6.86832601,14.2613476 7.55004705,18.6148868 9.97351372,23.5457375 C8.75274242,26.2043577 8.06650239,29.1604004 8.06650239,32.2768435 C8.06650239,35.4952415 8.79405885,38.544797 10.0922984,41.2716036 C-1.8384654,55.1381194 -0.211631093,56.7940748 0.492039303,57.5019146 C0.794811245,57.8064805 1.17311478,58 1.71668402,58 C2.86837942,58 4.76118823,57.1330586 8.24597062,54.6140583 C10.4137919,53.0464205 12.9786382,50.9904382 15.8204337,48.54417 C19.3852667,51.4372215 23.91458,53.1750006 28.8409183,53.1750006 C32.1791565,53.1750006 35.3327619,52.3742974 38.1306587,50.9612155 C40.3397964,51.8853035 42.3294406,52.3691023 44.0027559,52.3691023 C45.6663876,52.3691023 47.0220829,51.8982914 47.9859177,50.9287458 C49.943929,48.9591329 49.892929,45.417986 47.8555127,40.682603 C48.9839676,38.1077547 49.6166254,35.2666547 49.6166254,32.2774929 C49.6166254,27.3349531 47.8987658,22.7911414 45.0363121,19.2090826 C48.3609934,15.3205097 51.0168649,11.90015 52.6940536,9.30322234 C55.0962165,9.13308104 57,7.11801061 57,4.6600533 C57,2.09040016 54.9219128,0 52.3673956,0 Z M42.2487444,19.2194729 C38.6238735,23.3794926 34.297269,28.0174665 29.6233482,32.7184316 C28.8467284,33.4990035 28.0546151,34.2860694 27.2612106,35.0679401 C26.3548314,34.4282867 25.254136,34.0490405 24.0649976,34.0490405 C22.832606,34.0490405 21.6957587,34.4581589 20.7713037,35.1406722 C16.915319,30.950131 14.1083843,26.9686947 12.3104741,23.5554784 C15.4395479,17.5784535 21.6738094,13.4918154 28.8422095,13.4918154 C34.0990792,13.491166 38.8511139,15.6906644 42.2487444,19.2194729 Z M20.5847342,39.6617552 C20.5847342,37.731106 22.1457204,36.16152 24.0649976,36.16152 C25.9836292,36.16152 27.5446154,37.731106 27.5446154,39.6617552 C27.5446154,41.5917549 25.9836292,43.1613409 24.0649976,43.1613409 C22.146366,43.1613409 20.5847342,41.5917549 20.5847342,39.6617552 Z M10.6875132,13.4080435 C11.9767149,12.1118526 14.9056622,12.3670645 18.7009633,14.0470475 C15.6429022,15.775735 13.0619166,18.2590187 11.2084875,21.245583 C9.60618486,17.4732517 9.45447611,14.6483866 10.6875132,13.4080435 Z M19.336849,36.6946727 C18.7997354,37.5557695 18.4846977,38.5707728 18.4846977,39.6617552 C18.4846977,40.743646 18.7965076,41.7528047 19.3265199,42.6113039 C18.096065,43.7354054 16.933395,44.7770338 15.8372185,45.7394361 C12.3440437,42.3236223 10.1671845,37.5518732 10.1671845,32.2768435 C10.1671845,30.0539669 10.5558171,27.9213561 11.2627154,25.941353 C13.3395114,29.5201648 16.178079,33.2691179 19.336849,36.6946727 Z M2.18859509,55.801151 C2.60950618,54.4478133 4.82509958,50.6858723 11.170399,43.2490091 C12.0406262,44.662091 13.0722457,45.9634772 14.2407259,47.1265423 C7.58167994,52.8418613 3.6604928,55.3576147 2.18859509,55.801151 Z M28.8415639,51.0618716 C24.5504656,51.0618716 20.5950633,49.5942405 17.4375845,47.1369326 C18.5098749,46.1946615 19.6150893,45.2023871 20.7487088,44.1659538 C21.6770372,44.8582081 22.8216314,45.2744698 24.064352,45.2744698 C25.2889967,45.2744698 26.4200339,44.8698972 27.3412611,44.1945272 C30.2592338,46.5453344 33.056485,48.4175381 35.6271414,49.772824 C33.5219404,50.6014511 31.2353344,51.0618716 28.8415639,51.0618716 Z M46.5017541,49.4338402 C45.5224257,50.4183219 43.4159335,50.5215756 40.5005431,49.5643684 C42.9453136,47.8908794 45.0188818,45.7056676 46.5669566,43.1632891 C47.5817914,46.1199812 47.573399,48.3564951 46.5017541,49.4338402 Z M47.5152977,32.2768435 C47.5152977,39.2610789 43.7045029,45.3621381 38.0661018,48.5993685 C35.3882809,47.3720133 32.2379033,45.4199342 28.7789437,42.650917 C29.3238041,41.7833262 29.6446519,40.7605303 29.6446519,39.6617552 C29.6446519,38.5240164 29.3050826,37.4674519 28.7253614,36.5829769 C29.5258672,35.7939629 30.3257274,34.9997537 31.1081572,34.2126878 C35.7246224,29.5688694 40.0144295,24.9770025 43.6341359,20.8312695 C46.0647038,24.0022617 47.5152977,27.9707101 47.5152977,32.2768435 Z M39.7174677,14.4801935 C43.1886932,11.4689522 46.2319062,9.04541281 48.6211577,7.38945742 C49.0885498,8.03560472 49.7141063,8.55576953 50.4416628,8.89215577 C48.8341956,11.2682894 46.4940073,14.2568018 43.6289713,17.6167678 C42.4579088,16.421233 41.1454667,15.3659673 39.7174677,14.4801935 Z M52.3673956,7.20632824 C50.9716751,7.20632824 49.8354733,6.06339432 49.8354733,4.6594039 C49.8354733,3.25541349 50.9716751,2.11377836 52.3673956,2.11377836 C53.7637617,2.11377836 54.8999635,3.25541349 54.8999635,4.6594039 C54.8999635,6.06339432 53.7637617,7.20632824 52.3673956,7.20632824 Z" id="Shape"></path>
                    <circle id="Oval" cx="52" cy="21" r="2"></circle>
                    <circle id="Oval" cx="39" cy="39" r="4"></circle>
                    <circle id="Oval" cx="25" cy="48" r="1"></circle>
                    <circle id="Oval" cx="43" cy="28" r="1"></circle>
                    <circle id="Oval" cx="24" cy="18" r="1"></circle>
                    <circle id="Oval" cx="14" cy="37" r="1"></circle>
                    <circle id="Oval" cx="25" cy="28" r="2"></circle>
                </g>
                <g id="noun_Space_1689114" transform="translate(57.000000, 0.000000)" fill="#000000" fill-rule="nonzero">
                    <path d="M43.9996421,20 C49.5134768,20 54,15.5141926 54,10.0003579 C54,4.48652325 49.5134768,0 43.9996421,0 C38.4858074,0 34,4.48580735 34,9.99964205 C34,15.5134768 38.4850915,20 43.9996421,20 Z M43.9996421,1.43179296 C48.7245588,1.43179296 52.568207,5.27544117 52.568207,9.99964205 C52.568207,14.7238429 48.7245588,18.5674911 43.9996421,18.5674911 C39.2754412,18.5674911 35.431793,14.7238429 35.431793,9.99964205 C35.431793,5.27544117 39.2754412,1.43179296 43.9996421,1.43179296 Z" id="Shape"></path>
                    <path d="M14.5,32 C22.495594,32 29,25.495594 29,17.5 C29,9.50440605 22.495594,3 14.5,3 C6.50440605,3 0,9.50511987 0,17.5 C0,25.4948801 6.50440605,32 14.5,32 Z M14.5,4.42765717 C18.4888741,4.42765717 22.0608723,6.22864668 24.460764,9.05398021 L18.7501354,9.05398021 C18.3553882,9.05398021 18.0363068,9.37377541 18.0363068,9.76780879 C18.0363068,10.1618422 18.3553882,10.4816374 18.7501354,10.4816374 L25.5108059,10.4816374 C26.8092601,12.5117659 27.5730567,14.9159405 27.5730567,17.5 C27.5730567,18.1688574 27.5066706,18.8205829 27.4095899,19.4623148 L15.9547827,19.4623148 C15.5600354,19.4623148 15.2409541,19.78211 15.2409541,20.1761434 C15.2409541,20.5701767 15.5600354,20.8899719 15.9547827,20.8899719 L27.1112096,20.8899719 C26.8870674,21.7230099 26.5836902,22.5217841 26.2075026,23.2805839 L20.2727317,23.2805839 C19.8779845,23.2805839 19.5589032,23.6003791 19.5589032,23.9944124 C19.5589032,24.3884458 19.8779845,24.708241 20.2727317,24.708241 L25.3951657,24.708241 C23.0516664,28.2381234 19.0449466,30.5723428 14.5,30.5723428 C7.53303303,30.5723428 1.83739477,25.0894255 1.46334859,18.2138286 L10.8915965,18.2138286 C11.2863437,18.2138286 11.6054251,17.8940334 11.6054251,17.5 C11.6054251,17.1059666 11.2863437,16.7861714 10.8915965,16.7861714 L1.46334859,16.7861714 C1.50617831,15.9952493 1.61682174,15.2228868 1.79456506,14.4755083 L13.5748782,14.4755083 C13.9696254,14.4755083 14.2887067,14.1557131 14.2887067,13.7616797 C14.2887067,13.3676463 13.9696254,13.0478511 13.5748782,13.0478511 L2.22500369,13.0478511 C4.05169104,8.02892236 8.85718505,4.42765717 14.5,4.42765717 Z" id="Shape"></path>
                    <path d="M14,24.5 C14,24.776 14.2949035,25 14.6597394,25 L17.3402606,25 C17.7050965,25 18,24.776 18,24.5 C18,24.224 17.7050965,24 17.3402606,24 L14.6597394,24 C14.2955633,24 14,24.2235 14,24.5 Z" id="Shape"></path>
                    <path d="M23,40 C23,49.3739259 30.6261816,57 40,57 C49.3738184,57 57,49.3739259 57,40 C57,30.6260741 49.3738184,23 40,23 C30.6261816,23 23,30.6260741 23,40 Z M28.1223835,48.7594074 C28.0133356,49.0220529 27.8339804,49.2408042 27.6079929,49.4019894 C27.0046421,48.6090159 26.4759031,47.757037 26.0318197,46.856127 C26.4220966,46.6510476 26.8898548,46.621545 27.3095459,46.7956825 C27.6818872,46.9503915 27.9710078,47.240381 28.1238184,47.6124021 C28.276629,47.9822646 28.2759115,48.3902646 28.1223835,48.7594074 Z M36.7551063,55.218328 C36.826131,54.7146243 37.1138167,54.2584127 37.5657917,53.9936085 C38.367868,53.5230053 39.4045409,53.7935661 39.8744514,54.5958942 C40.0473498,54.8916402 40.1233964,55.2240847 40.1004389,55.5579683 C40.0667201,55.5579683 40.0337188,55.5608466 39.9992826,55.5608466 C38.8872806,55.5608466 37.8018231,55.4413968 36.7551063,55.218328 Z M50.3143569,51.639873 C49.8795999,51.2217989 49.6579169,50.6166349 49.7447248,50.0042751 C49.8903612,48.9652063 50.8560095,48.239873 51.8919649,48.3837884 C52.2427836,48.4327196 52.5613184,48.5802328 52.8281989,48.7997037 C52.1079085,49.8459683 51.262787,50.7986878 50.3143569,51.639873 Z M47.4568704,26.3453122 C48.3357107,26.826709 49.1636141,27.3908571 49.929102,28.0262434 C49.6485905,28.3903492 49.2167032,28.618455 48.7432056,28.618455 C47.9138673,28.618455 47.2380571,27.9442116 47.2380571,27.1166984 C47.2380571,26.8396614 47.3169733,26.5762963 47.4568704,26.3453122 Z M46.1712525,25.7178413 C45.9388082,26.1438307 45.8032157,26.6180317 45.8032157,27.1166984 C45.8032157,28.7386243 47.1218349,30.0576085 48.7432056,30.0576085 C49.6277853,30.0576085 50.4485145,29.6582434 50.9987762,28.9991111 C53.8182394,31.8176931 55.5651587,35.7084444 55.5651587,40 C55.5651587,42.7509418 54.8441509,45.3356614 53.5865125,47.5800212 C53.1481685,47.2583704 52.6438217,47.0353016 52.0914078,46.9575873 C50.2662897,46.6992593 48.5796337,47.9786667 48.3242319,49.8027937 C48.1814652,50.8166772 48.5165007,51.8190476 49.1930284,52.5458201 C47.0027431,54.1540741 44.3784183,55.2046561 41.5302583,55.4838519 C41.5381499,54.9218624 41.4032748,54.3663492 41.1127194,53.8684021 C40.2453579,52.3817566 38.3291273,51.8802116 36.8433491,52.7501799 C36.0556212,53.2114286 35.5254473,53.9849735 35.3561361,54.8527831 C32.7052667,54.0223915 30.3585837,52.5012063 28.5255739,50.5007831 C28.9258947,50.1913651 29.248734,49.792 29.4474595,49.3120423 C29.7487762,48.5874286 29.7494936,47.7886984 29.4503292,47.0626455 C29.1504473,46.3351534 28.5858373,45.768127 27.8590901,45.4659048 C27.0713623,45.1392169 26.1989787,45.1787937 25.4571658,45.5357037 C24.799291,43.8144762 24.4355587,41.9486138 24.4355587,39.9992804 C24.4355587,36.3733333 25.686023,33.0366561 27.7729997,30.3878942 C28.1733204,30.7994921 28.6661884,31.1117884 29.2322333,31.2744127 C29.5371371,31.3622011 29.8449105,31.4039365 30.1469446,31.4039365 C31.5982866,31.4039365 32.9384284,30.4454603 33.3566847,28.9796825 C33.6357613,28.0039365 33.4499494,26.9735026 32.8917961,26.1625397 C35.0239703,25.0630265 37.4395257,24.4384339 40,24.4384339 C42.1917201,24.4391534 44.2779794,24.8968042 46.1712525,25.7178413 Z M31.6391796,26.8849947 C32.0122384,27.3591958 32.1478309,27.9888254 31.9778022,28.5839153 C31.6893991,29.5927619 30.6383778,30.1813757 29.6260972,29.8913862 C29.2645172,29.7877672 28.9495695,29.5834074 28.7106685,29.3049312 C29.583052,28.3845926 30.5659183,27.5707513 31.6391796,26.8849947 Z" id="Shape"></path>
                    <path d="M32,39 C32,37.3458511 30.654105,36 29,36 C27.345895,36 26,37.3458511 26,39 C26,40.6541489 27.345895,42 29,42 C30.654105,42 32,40.6541489 32,39 Z M29,40.6507758 C28.0881561,40.6507758 27.345895,39.9100517 27.345895,39 C27.345895,38.0899483 28.0881561,37.3492242 29,37.3492242 C29.9118439,37.3492242 30.654105,38.0899483 30.654105,39 C30.654105,39.9100517 29.9118439,40.6507758 29,40.6507758 Z" id="Shape"></path>
                    <path d="M37,39.4996621 C37,41.4292749 38.570314,43 40.5,43 C42.429686,43 44,41.4299508 44,39.4996621 C44,37.5693734 42.429686,36 40.5,36 C38.570314,36 37,37.5693734 37,39.4996621 Z M42.6521865,39.4996621 C42.6521865,40.6844646 41.6866692,41.6482572 40.5006742,41.6482572 C39.3146793,41.6482572 38.349162,40.6844646 38.349162,39.4996621 C38.349162,38.3155354 39.3146793,37.3517428 40.5006742,37.3517428 C41.6866692,37.3517428 42.6521865,38.3148595 42.6521865,39.4996621 Z" id="Shape"></path>
                    <path d="M47,42.5 C47,43.8781381 48.1218367,45 49.5,45 C50.8781633,45 52,43.8787918 52,42.5 C52,41.1212082 50.8781633,40 49.5,40 C48.1218367,40 47,41.1212082 47,42.5 Z M50.6955387,42.5 C50.6955387,43.1570345 50.1594052,43.6924686 49.5,43.6924686 C48.8405948,43.6924686 48.3044613,43.1576883 48.3044613,42.5 C48.3044613,41.8423117 48.8405948,41.3075314 49.5,41.3075314 C50.1594052,41.3075314 50.6955387,41.8423117 50.6955387,42.5 Z" id="Shape"></path>
                    <path d="M48.0003359,38 C49.65435,38 51,36.6538721 51,35 C51,33.3461279 49.65435,32 48.0003359,32 C46.34565,32 45,33.3461279 45,35 C45,36.6538721 46.34565,38 48.0003359,38 Z M48.0003359,33.3474747 C48.9133356,33.3474747 49.6563655,34.0888889 49.6563655,35.0006734 C49.6563655,35.9124579 48.9140074,36.6538721 48.0003359,36.6538721 C47.0866644,36.6538721 46.3436345,35.9124579 46.3436345,35.0006734 C46.3436345,34.0888889 47.0873362,33.3474747 48.0003359,33.3474747 Z" id="Shape"></path>
                    <path d="M43.5,47 C42.1218367,47 41,48.1212082 41,49.5 C41,50.8787918 42.1218367,52 43.5,52 C44.8781633,52 46,50.8787918 46,49.5 C46,48.1212082 44.8781633,47 43.5,47 Z M43.5,50.6924686 C42.8405948,50.6924686 42.3044613,50.1576883 42.3044613,49.5 C42.3044613,48.8429655 42.8405948,48.3075314 43.5,48.3075314 C44.1594052,48.3075314 44.6955387,48.8423117 44.6955387,49.5 C44.6955387,50.1570345 44.1594052,50.6924686 43.5,50.6924686 Z" id="Shape"></path>
                    <path d="M34.9996297,44 C32.7939842,44 31,45.7940249 31,48 C31,50.2052329 32.7947246,52 34.9996297,52 C37.2052752,52 38.9999998,50.2059751 38.9999998,48 C39.0007402,45.7940249 37.2060156,44 34.9996297,44 Z M34.9996297,50.5154945 C33.6106431,50.5154945 32.4807959,49.3872704 32.4807959,48 C32.4807959,46.6127296 33.6106431,45.4845055 34.9996297,45.4845055 C36.3893566,45.4845055 37.5192039,46.6134719 37.5192039,48 C37.5192039,49.3865281 36.3893566,50.5154945 34.9996297,50.5154945 Z" id="Shape"></path>
                    <path d="M38.9996298,35 C41.2052753,35 43,33.2059751 43,31 C43,28.7940249 41.2052753,27 38.9996298,27 C36.7939843,27 35,28.7940249 35,31 C35,33.2059751 36.7939843,35 38.9996298,35 Z M38.9996298,28.4845055 C40.3893568,28.4845055 41.5192041,29.6134719 41.5192041,31 C41.5192041,32.3865281 40.3893568,33.5154945 38.9996298,33.5154945 C37.6106432,33.5154945 36.4807959,32.3865281 36.4807959,31 C36.4807959,29.6134719 37.6106432,28.4845055 38.9996298,28.4845055 Z" id="Shape"></path>
                </g>
                <g id="noun_Space_1758780" transform="translate(393.000000, 52.000000) rotate(21.000000) translate(-393.000000, -52.000000) translate(363.000000, 23.000000)" fill="#000000" fill-rule="nonzero">
                    <path d="M9.17585,41.3140946 C9.25653886,41.1422112 9.40206927,41.0095265 9.58039294,40.9452598 C9.75871662,40.8809932 9.95520933,40.8904151 10.1266,40.9714506 C10.83775,41.3074496 11.5935357,41.6249173 12.3730286,41.9147598 C12.6130452,42.0031311 12.7876246,42.2133868 12.8307647,42.4660368 C12.8739048,42.7186869 12.7790229,42.9751807 12.5819906,43.1385472 C12.3849583,43.3019137 12.1158396,43.3472257 11.8763786,43.2573523 C11.0588571,42.9535183 10.2654,42.620319 9.51762857,42.2671921 C9.1607914,42.0985369 9.00780157,41.6719032 9.17585,41.3140946 Z M22.5763786,45.5988553 C22.9578775,45.5989132 23.2720832,45.2984271 23.2899855,44.9164075 C23.3078879,44.5343879 23.023167,44.2056959 22.6433429,44.1699 C20.6922809,43.9869269 18.7551674,43.676845 16.8442857,43.2416207 C16.5953954,43.1839343 16.334722,43.2638936 16.1606481,43.4513205 C15.9865743,43.6387475 15.9256068,43.9051019 16.000756,44.149857 C16.0759052,44.3946122 16.2757277,44.5804982 16.5248071,44.6373585 C18.4963442,45.0866258 20.4949656,45.4067515 22.5079929,45.5957047 C22.5310429,45.5978027 22.5537143,45.5988481 22.5763786,45.5988481 L22.5763786,45.5988553 Z M28.2638143,24.7344938 C28.607281,24.5408461 28.7294611,24.1049617 28.5368805,23.7603149 C28.3442999,23.415668 27.9096996,23.2924378 27.5655714,23.4849017 C26.8178827,23.9007929 26.1578791,24.4582895 25.6222143,25.1264306 C25.0113552,25.8095474 24.7206233,26.7216876 24.8231786,27.6333195 C24.9581957,28.3508316 25.4025662,28.9718751 26.0372571,29.3300916 C27.5130194,30.1150818 29.2551582,30.2225371 30.8157857,29.6248319 C30.8776071,29.5990899 30.9298357,29.5699825 30.9879286,29.5428872 L30.9972143,29.5384763 C31.2312429,29.4286916 31.4455143,29.3120042 31.6468929,29.1958323 C31.8471703,29.0750276 32.0540898,28.9656514 32.2666643,28.8682254 C32.8741874,28.6028223 33.5687262,28.6263317 34.1570071,28.9322116 C34.9114,29.3105148 35.3107429,29.8940521 35.19915,30.4555637 C34.9107156,31.2287274 34.3362781,31.8608018 33.5951429,32.2205109 C28.0318786,35.6168477 19.601,32.8383111 17.4553571,29.3566642 C15.9821429,26.9651738 16.97405,24.1153116 20.0442929,21.918558 C22.4578104,20.3292844 25.1747688,19.2607721 28.0224571,18.7809442 C28.2730368,18.7327222 28.4789193,18.5541504 28.5625505,18.3124952 C28.6461817,18.0708399 28.5948561,17.8028144 28.4279076,17.6093812 C28.2609591,17.415948 28.0037511,17.3264943 27.7531714,17.3747163 C24.7010717,17.8845395 21.7910624,19.0357788 19.2142143,20.752844 C15.5297857,23.38908 14.3620714,27.0616328 16.2402357,30.1090388 C18.0733857,33.0840736 22.8766643,35.171379 27.6220714,35.171379 C29.9761088,35.2199701 32.2986021,34.6224667 34.3383786,33.4434874 C35.4342991,32.8939198 36.2535203,31.9130143 36.6005214,30.7348802 C36.7750384,29.4140457 36.0315183,28.1433541 34.7963214,27.6514642 C33.8306149,27.1604657 32.69736,27.1243489 31.7024929,27.5528642 L33.3410643,18.2541395 C40.8139929,18.3359123 44.5951214,19.9260432 47.5498714,21.6454568 C51.00795,23.6582716 53.2257929,26.4735486 53.6342071,29.3692094 C53.9934429,31.9148938 52.98235,34.5616128 50.7871786,36.8216437 C48.3768143,39.3043946 44.4684714,41.411284 39.7823643,42.7542274 C35.7455311,43.8665121 31.5755638,44.4183631 27.3890929,44.3943457 C27.3472117,44.3904959 27.3050669,44.3904959 27.2631857,44.3943457 C26.8694022,44.3944075 26.5499237,44.7138934 26.5489,45.1086479 C26.5498979,45.4155827 26.7479163,45.6869733 27.0394071,45.7809037 L25.1935714,56.2560259 C25.1606242,56.4430577 25.2031486,56.6355494 25.3117881,56.7911478 C25.4204276,56.9467463 25.5862814,57.0527032 25.7728571,57.0857052 C25.8140859,57.0929259 25.8558611,57.0965531 25.8977143,57.0965462 C26.2440174,57.0961107 26.5401694,56.8468187 26.6004929,56.5049677 L28.4853,45.808622 C32.437011,45.7477391 36.3650149,45.1840508 40.1750571,44.131083 C45.0969357,42.720659 49.2291857,40.4795104 51.8107714,37.8208978 C54.3212357,35.2357089 55.4711357,32.1631267 55.0487714,29.1685151 C54.5782786,25.8354556 52.1065286,22.641904 48.2668929,20.4070494 C44.0723357,17.9657793 39.7704643,16.9100146 33.5932143,16.8227783 L34.2442429,13.1283788 C37.8091069,13.1719481 41.3592669,13.5950491 44.8349571,14.390559 C45.0844651,14.4490456 45.3461081,14.3690726 45.5206189,14.1809819 C45.6951297,13.9928913 45.755768,13.7255038 45.6795278,13.4802664 C45.6032875,13.235029 45.4018508,13.0495193 45.1516429,12.9941195 C41.6546801,12.1918754 38.0841079,11.7556008 34.4973,11.6923059 L36.3960571,0.917080247 C36.4409842,0.664883213 36.3480973,0.407838112 36.1524684,0.242999198 C35.9568394,0.0781602844 35.6882727,0.0306408487 35.4481727,0.118383125 C35.2080726,0.206125402 35.0330187,0.415761811 34.9891071,0.668138519 L30.1104286,28.3543168 C29.0158346,28.7101805 27.8259956,28.6244901 26.7933857,28.1154284 C26.508581,27.9693977 26.3027701,27.7045887 26.2311643,27.3920395 C26.2073082,26.8848662 26.3904035,26.3898053 26.7383071,26.0208049 C27.1587834,25.4969158 27.6769097,25.0600306 28.2638143,24.7344938 Z M10.4561929,35.0909667 C14.3879,38.3883741 21.2820857,40.5186783 28.1155786,40.5183274 C32.5512929,40.5183274 36.9618429,39.6204659 40.5179214,37.5611294 C44.5047357,35.2521494 46.4052,31.8121049 45.4774643,28.5839395 C44.7828646,26.4985754 43.2471487,24.8011467 41.2444143,23.905144 C40.8917233,23.7280733 40.4626202,23.8711478 40.2859857,24.2247096 C40.1093512,24.5782715 40.2520733,25.0084341 40.6047643,25.1855047 C42.2485549,25.9054434 43.5174304,27.2812655 44.1046929,28.9804232 C44.84165,31.5446319 43.19335,34.3574385 39.8032643,36.3213615 C31.2559,41.2704227 17.5020643,39.1327647 11.3727429,33.9924538 C9.18803571,32.160377 7.93417143,29.9608309 7.74655714,27.6315723 C7.61485591,25.290638 8.44287006,22.9973793 10.0387,21.283279 C13.3698214,17.4215746 20.2423857,14.4325625 27.9743143,13.482637 C28.3658745,13.4344851 28.6444086,13.0773169 28.5965214,12.6847719 C28.544734,12.2943856 28.1910332,12.0171918 27.8006214,12.0610284 C19.6090071,13.067622 12.5652,16.1647074 8.9582,20.3462926 C7.10837646,22.3488466 6.15609773,25.0227353 6.32254286,27.7469136 C6.54192143,30.4674143 7.97119286,33.0067975 10.4561929,35.0909667 Z M48.2829929,15.3184946 C49.6019227,15.7284803 50.898366,16.2079111 52.1669214,16.7547894 C52.5290506,16.9115905 52.9494136,16.7444144 53.1058286,16.3813911 C53.2622435,16.0183678 53.0954792,15.5969668 52.73335,15.4401657 C51.4186996,14.8735317 50.0752324,14.3765993 48.7085143,13.9514274 C48.4643461,13.8732829 48.1971293,13.9322761 48.0082953,14.106014 C47.8194613,14.2797519 47.7379618,14.5415974 47.7947328,14.7921579 C47.8515038,15.0427184 48.0378412,15.2435784 48.2830143,15.3184946 L48.2829929,15.3184946 Z M17.1428571,7.16049383 L17.8571429,7.16049383 L17.8571429,7.87654321 C17.8571429,8.27200636 18.1769395,8.59259259 18.5714286,8.59259259 C18.9659177,8.59259259 19.2857143,8.27200636 19.2857143,7.87654321 L19.2857143,7.16049383 L20,7.16049383 C20.3944891,7.16049383 20.7142857,6.8399076 20.7142857,6.44444444 C20.7142857,6.04898129 20.3944891,5.72839506 20,5.72839506 L19.2857143,5.72839506 L19.2857143,5.01234568 C19.2857143,4.61688252 18.9659177,4.2962963 18.5714286,4.2962963 C18.1769395,4.2962963 17.8571429,4.61688252 17.8571429,5.01234568 L17.8571429,5.72839506 L17.1428571,5.72839506 C16.748368,5.72839506 16.4285714,6.04898129 16.4285714,6.44444444 C16.4285714,6.8399076 16.748368,7.16049383 17.1428571,7.16049383 Z M47.1428571,53.7037037 C46.748368,53.7037037 46.4285714,54.0242899 46.4285714,54.4197531 L46.4285714,55.1358025 L45.7142857,55.1358025 C45.3197966,55.1358025 45,55.4563887 45,55.8518519 C45,56.247315 45.3197966,56.5679012 45.7142857,56.5679012 L46.4285714,56.5679012 L46.4285714,57.2839506 C46.4285714,57.6794138 46.748368,58 47.1428571,58 C47.5373462,58 47.8571429,57.6794138 47.8571429,57.2839506 L47.8571429,56.5679012 L48.5714286,56.5679012 C48.9659177,56.5679012 49.2857143,56.247315 49.2857143,55.8518519 C49.2857143,55.4563887 48.9659177,55.1358025 48.5714286,55.1358025 L47.8571429,55.1358025 L47.8571429,54.4197531 C47.8571429,54.0242899 47.5373462,53.7037037 47.1428571,53.7037037 Z M52.1428571,2.14814815 C52.1428571,2.5436113 52.4626538,2.86419753 52.8571429,2.86419753 C53.251632,2.86419753 53.5714286,2.5436113 53.5714286,2.14814815 C53.9659177,2.14814815 54.2857143,1.82756192 54.2857143,1.43209877 C54.2857143,1.03663561 53.9659177,0.716049383 53.5714286,0.716049383 C53.5714286,0.320586229 53.251632,0 52.8571429,0 C52.4626538,0 52.1428571,0.320586229 52.1428571,0.716049383 C51.748368,0.716049383 51.4285714,1.03663561 51.4285714,1.43209877 C51.4285714,1.82756192 51.748368,2.14814815 52.1428571,2.14814815 Z M0.714285714,23.6296296 C0.714285714,24.0250928 1.03408232,24.345679 1.42857143,24.345679 C1.82306054,24.345679 2.14285714,24.0250928 2.14285714,23.6296296 C2.53734625,23.6296296 2.85714286,23.3090434 2.85714286,22.9135802 C2.85714286,22.5181171 2.53734625,22.1975309 2.14285714,22.1975309 C2.14285714,21.8020677 1.82306054,21.4814815 1.42857143,21.4814815 C1.03408232,21.4814815 0.714285714,21.8020677 0.714285714,22.1975309 C0.319796607,22.1975309 0,22.5181171 0,22.9135802 C0,23.3090434 0.319796607,23.6296296 0.714285714,23.6296296 Z M57.8571429,45.8271605 C57.8571429,46.2226236 58.1769395,46.5432099 58.5714286,46.5432099 C58.9659177,46.5432099 59.2857143,46.2226236 59.2857143,45.8271605 C59.6802034,45.8271605 60,45.5065743 60,45.1111111 C60,44.715648 59.6802034,44.3950617 59.2857143,44.3950617 C59.2857143,43.9995986 58.9659177,43.6790123 58.5714286,43.6790123 C58.1769395,43.6790123 57.8571429,43.9995986 57.8571429,44.3950617 C57.4626538,44.3950617 57.1428571,44.715648 57.1428571,45.1111111 C57.1428571,45.5065743 57.4626538,45.8271605 57.8571429,45.8271605 Z M7.14285714,50.1234568 C7.14285714,50.5189199 7.46265375,50.8395062 7.85714286,50.8395062 L9.28571429,50.8395062 L9.28571429,52.2716049 C9.28571429,52.6670681 9.60551089,52.9876543 10,52.9876543 C10.3944891,52.9876543 10.7142857,52.6670681 10.7142857,52.2716049 L10.7142857,50.8395062 L12.1428571,50.8395062 C12.5373462,50.8395062 12.8571429,50.5189199 12.8571429,50.1234568 C12.8571429,49.7279936 12.5373462,49.4074074 12.1428571,49.4074074 L10.7142857,49.4074074 L10.7142857,47.9753086 C10.7142857,47.5798455 10.3944891,47.2592593 10,47.2592593 C9.60551089,47.2592593 9.28571429,47.5798455 9.28571429,47.9753086 L9.28571429,49.4074074 L7.85714286,49.4074074 C7.46265375,49.4074074 7.14285714,49.7279936 7.14285714,50.1234568 Z" id="Shape"></path>
                </g>
                <g id="noun_Space_1652601" transform="translate(0.000000, 92.000000)" fill="#000000" fill-rule="nonzero">
                    <g id="Group">
                        <path d="M28.0349333,16.5751778 C27.6055,16.5751778 27.2406333,16.8736444 27.1778,17.2765333 C26.9576667,18.6813 26.7015667,20.1243 26.3232667,21.1631778 C26.1672667,21.5923778 26.4073333,22.0606333 26.8597333,22.2086333 C27.3125667,22.3558111 27.8057,22.1288778 27.9617,21.6996778 C27.989,21.6244444 28.0158667,21.5479778 28.0418667,21.4698667 C28.7629333,23.5998333 29.8688,24.6485778 32.1147667,25.3322556 C31.0782333,25.6447 30.2848,26.0397778 29.6430333,26.6005333 C29.2911667,26.9084556 29.2690667,27.4289222 29.5936333,27.7623333 C29.7643667,27.9382889 29.9975,28.0275 30.2310667,28.0275 C30.4412333,28.0275 30.6518333,27.9555556 30.8182333,27.8100222 C31.8001667,26.9512111 33.5127,26.5779222 36.5317333,26.1520111 C36.9564,26.0919889 37.271,25.7462444 37.271,25.3384222 C37.271,24.9306 36.9564,24.5852667 36.5317333,24.5248333 C30.316,23.6479333 29.8159333,23.1739222 28.8916333,17.2765333 C28.8288,16.8736444 28.4643667,16.5751778 28.0349333,16.5751778 Z" id="Shape"></path>
                        <path d="M18.798,25.3384222 C18.798,25.7458333 19.1126,26.0915778 19.5372667,26.1520111 C25.753,27.0289111 26.2530667,27.5029222 27.1773667,33.4003111 C27.2406333,33.8032 27.6050667,34.1016667 28.0345,34.1016667 C28.4639333,34.1016667 28.8288,33.8032 28.8916333,33.4003111 C29.1915,31.4874111 29.4870333,30.0078222 29.9550333,29.0063556 C30.1487333,28.5907222 29.9511333,28.1056111 29.5134667,27.9214333 C29.0758,27.7364333 28.5640333,27.9243111 28.3699,28.3399444 C28.2442333,28.6092222 28.1311333,28.897 28.0267,29.2065667 C27.3065,27.0786556 26.2019333,26.0299111 23.9603,25.3466444 C25.3088333,24.9421111 26.2322667,24.4015 26.9498667,23.5381667 C27.2462667,23.1813222 27.1817,22.6645556 26.8055667,22.3833556 C26.429,22.1025667 25.8847333,22.1638222 25.5883333,22.5198444 C24.661,23.6364222 22.9718667,24.0405444 19.5364,24.5252444 C19.1126,24.5848556 18.798,24.9310111 18.798,25.3384222 Z" id="Shape"></path>
                        <path d="M10.0299333,8.5174 C9.3184,9.07322222 8.04483333,9.3388 5.94403333,9.63521111 C5.51936667,9.69523333 5.20476667,10.0409778 5.20476667,10.4488 C5.20476667,10.8566222 5.51936667,11.2019556 5.94403333,11.2623889 C10.5105,11.9066 10.8220667,12.2021889 11.5011,16.5340667 C11.5643667,16.9369556 11.9288,17.2354222 12.3582333,17.2354222 C12.7876667,17.2354222 13.1525333,16.9369556 13.2153667,16.5340667 C13.4363667,15.1251889 13.6521667,14.0369778 13.9893,13.3052 C14.1808333,12.8887444 13.9802,12.4044556 13.5416667,12.2223333 C13.1031333,12.0418556 12.5922333,12.2309667 12.4007,12.6466 C12.3833667,12.6848333 12.3660333,12.7230667 12.3495667,12.7617111 C11.8516667,11.6138889 11.1310333,10.9302111 9.92203333,10.4578444 C10.3878667,10.2765444 10.7835,10.0594778 11.1319,9.78732222 C11.5015333,9.49913333 11.5544,8.98072222 11.2502,8.63045556 C10.946,8.28018889 10.3995667,8.2288 10.0299333,8.5174 Z" id="Shape"></path>
                        <path d="M18.772,9.63521111 C14.2055333,8.99141111 13.8944,8.69582222 13.2149333,4.36394444 C13.1516667,3.96105556 12.7872333,3.66258889 12.3578,3.66258889 C11.9283667,3.66258889 11.5635,3.96105556 11.5006667,4.36394444 C11.3290667,5.45791111 11.1293,6.57654444 10.8307333,7.34737778 C10.6656333,7.7737 10.8957333,8.24647778 11.3451,8.4027 C11.7208,8.53425556 12.1324667,8.40187778 12.3530333,8.10423333 C12.8513667,9.27178889 13.5741667,9.96327778 14.7957333,10.4405778 C14.4404,10.5791222 14.1253667,10.7382222 13.8402333,10.9265111 C13.4476333,11.1867444 13.3514333,11.6989889 13.6253,12.0714556 C13.7938667,12.3008556 14.0629667,12.4229556 14.3368333,12.4229556 C14.508,12.4229556 14.6809,12.3752667 14.8321333,12.2753667 C15.5666333,11.7886111 16.8332667,11.5353667 18.772,11.2619778 C19.1966667,11.2019556 19.5112667,10.8562111 19.5112667,10.4483889 C19.5112667,10.0405667 19.1971,9.69482222 18.772,9.63521111 Z" id="Shape"></path>
                        <path d="M33.2050333,4.83384444 C32.7682333,4.64884444 32.2556,4.8322 32.0588667,5.2466 C31.8504333,5.68648889 31.7447,6.15556667 31.7447,6.64067778 C31.7447,8.51698889 33.3541,10.0438556 35.3322667,10.0438556 C37.3104333,10.0438556 38.9198333,8.51698889 38.9198333,6.64067778 C38.9198333,4.76395556 37.3104333,3.23708889 35.3322667,3.23708889 C34.8538667,3.23708889 34.4656,3.60544444 34.4656,4.05931111 C34.4656,4.51317778 34.8538667,4.88153333 35.3322667,4.88153333 C36.3545,4.88153333 37.1865,5.67086667 37.1865,6.64067778 C37.1865,7.61048889 36.3549333,8.39941111 35.3322667,8.39941111 C34.3096,8.39941111 33.4780333,7.61048889 33.4780333,6.64067778 C33.4780333,6.38948889 33.5322,6.14734444 33.6396667,5.92123333 C33.8359667,5.50683333 33.6414,5.02007778 33.2050333,4.83384444 Z" id="Shape"></path>
                        <path d="M1.08896667,32.5941222 C0.614466667,32.5324556 0.177233333,32.8465444 0.112233333,33.2963 C0.091,33.4426556 0.0801666667,33.5931222 0.0801666667,33.7427667 C0.0801666667,35.5389111 1.62023333,37 3.51346667,37 C5.4067,37 6.94676667,35.5389111 6.94676667,33.7427667 C6.94676667,31.9466222 5.4067,30.4851222 3.51346667,30.4851222 C3.1239,30.4851222 2.74083333,30.5467889 2.3751,30.6688889 C1.92356667,30.8193556 1.6861,31.2888444 1.8447,31.7172222 C2.0033,32.1451889 2.49773333,32.3713 2.9497,32.2204222 C3.1304,32.1604 3.3202,32.1295667 3.51346667,32.1295667 C4.45076667,32.1295667 5.21343333,32.8531222 5.21343333,33.7427667 C5.21343333,34.632 4.45076667,35.3555556 3.51346667,35.3555556 C2.57573333,35.3555556 1.8135,34.632 1.8135,33.7427667 C1.8135,33.6675333 1.8187,33.5935333 1.82953333,33.5211778 C1.89453333,33.0710111 1.56303333,32.6566111 1.08896667,32.5941222 Z" id="Shape"></path>
                        <ellipse id="Oval" cx="3.51346667" cy="0.974744444" rx="1.02743333" ry="1"></ellipse>
                        <ellipse id="Oval" cx="37.2103333" cy="33.7427667" rx="1.0673" ry="1.01256667"></ellipse>
                        <ellipse id="Oval" cx="10.5209" cy="27.8342778" rx="1.0673" ry="1.01256667"></ellipse>
                        <ellipse id="Oval" cx="29.9576333" cy="1.94948889" rx="1" ry="1"></ellipse>
                        <ellipse id="Oval" cx="21.4764333" cy="13.0716889" rx="1" ry="1"></ellipse>
                    </g>
                </g>
                <g id="noun_Space_1652601" transform="translate(0.000000, 269.000000)" fill="#000000" fill-rule="nonzero">
                    <g id="Group">
                        <path d="M28.0349333,4.73043403 C27.6055,4.73043403 27.2406333,5.02663194 27.1778,5.42645833 C26.9576667,6.82054687 26.7015667,8.25257812 26.3232667,9.28355903 C26.1672667,9.70949653 26.4073333,10.1741927 26.8597333,10.3210677 C27.3125667,10.4671267 27.8057,10.2419184 27.9617,9.8159809 C27.989,9.74131944 28.0158667,9.66543403 28.0418667,9.58791667 C28.7629333,11.7016927 29.8688,12.7424653 32.1147667,13.4209462 C31.0782333,13.7310156 30.2848,14.1230903 29.6430333,14.6795833 C29.2911667,14.9851649 29.2690667,15.5016753 29.5936333,15.8325521 C29.7643667,16.0071701 29.9975,16.0957031 30.2310667,16.0957031 C30.4412333,16.0957031 30.6518333,16.0243056 30.8182333,15.8798785 C31.8001667,15.0275955 33.5127,14.6571441 36.5317333,14.2344705 C36.9564,14.1749045 37.271,13.8317882 37.271,13.427066 C37.271,13.0223437 36.9564,12.6796354 36.5317333,12.6196615 C30.316,11.7494271 29.8159333,11.2790191 28.8916333,5.42645833 C28.8288,5.02663194 28.4643667,4.73043403 28.0349333,4.73043403 Z" id="Shape"></path>
                        <path d="M18.798,13.427066 C18.798,13.8313802 19.1126,14.1744965 19.5372667,14.2344705 C25.753,15.1047049 26.2530667,15.5751128 27.1773667,21.4276736 C27.2406333,21.8275 27.6050667,22.1236979 28.0345,22.1236979 C28.4639333,22.1236979 28.8288,21.8275 28.8916333,21.4276736 C29.1915,19.5293142 29.4870333,18.0609722 29.9550333,17.0671181 C30.1487333,16.6546441 29.9511333,16.1732205 29.5134667,15.9904427 C29.0758,15.806849 28.5640333,15.9932986 28.3699,16.4057726 C28.2442333,16.6730035 28.1311333,16.9585938 28.0267,17.2658073 C27.3065,15.1540712 26.2019333,14.1132986 23.9603,13.4352257 C25.3088333,13.0337674 26.2322667,12.4972656 26.9498667,11.6404948 C27.2462667,11.2863628 27.1817,10.7735243 26.8055667,10.4944618 C26.429,10.2158073 25.8847333,10.2765972 25.5883333,10.6299132 C24.661,11.7380035 22.9718667,12.1390538 19.5364,12.6200694 C19.1126,12.6792274 18.798,13.0227517 18.798,13.427066 Z" id="Shape"></path>
                        <path d="M1.08896667,20.6276128 C0.614466667,20.5664149 0.177233333,20.8781163 0.112233333,21.3244531 C0.091,21.4696962 0.0801666667,21.6190191 0.0801666667,21.767526 C0.0801666667,23.5500174 1.62023333,25 3.51346667,25 C5.4067,25 6.94676667,23.5500174 6.94676667,21.767526 C6.94676667,19.9850347 5.4067,18.5346441 3.51346667,18.5346441 C3.1239,18.5346441 2.74083333,18.595842 2.3751,18.7170139 C1.92356667,18.8663368 1.6861,19.3322569 1.8447,19.7573785 C2.0033,20.182092 2.49773333,20.4064844 2.9497,20.2567535 C3.1304,20.1971875 3.3202,20.1665885 3.51346667,20.1665885 C4.45076667,20.1665885 5.21343333,20.8846441 5.21343333,21.767526 C5.21343333,22.65 4.45076667,23.3680556 3.51346667,23.3680556 C2.57573333,23.3680556 1.8135,22.65 1.8135,21.767526 C1.8135,21.6928646 1.8187,21.6194271 1.82953333,21.5476215 C1.89453333,21.1008767 1.56303333,20.6896267 1.08896667,20.6276128 Z" id="Shape"></path>
                        <ellipse id="Oval" cx="37.2103333" cy="21.767526" rx="1.0673" ry="1.00486979"></ellipse>
                        <ellipse id="Oval" cx="10.5209" cy="15.9039497" rx="1.0673" ry="1.00486979"></ellipse>
                        <ellipse id="Oval" cx="21.4764333" cy="1.25357639" rx="1" ry="1"></ellipse>
                    </g>
                </g>
                <g id="noun_Space_1652601" transform="translate(57.000000, 353.000000)" fill="#000000" fill-rule="nonzero">
                    <g id="Group">
                        <path d="M8.02993333,8.5174 C7.3184,9.07322222 6.04483333,9.3388 3.94403333,9.63521111 C3.51936667,9.69523333 3.20476667,10.0409778 3.20476667,10.4488 C3.20476667,10.8566222 3.51936667,11.2019556 3.94403333,11.2623889 C8.5105,11.9066 8.82206667,12.2021889 9.5011,16.5340667 C9.56436667,16.9369556 9.9288,17.2354222 10.3582333,17.2354222 C10.7876667,17.2354222 11.1525333,16.9369556 11.2153667,16.5340667 C11.4363667,15.1251889 11.6521667,14.0369778 11.9893,13.3052 C12.1808333,12.8887444 11.9802,12.4044556 11.5416667,12.2223333 C11.1031333,12.0418556 10.5922333,12.2309667 10.4007,12.6466 C10.3833667,12.6848333 10.3660333,12.7230667 10.3495667,12.7617111 C9.85166667,11.6138889 9.13103333,10.9302111 7.92203333,10.4578444 C8.38786667,10.2765444 8.7835,10.0594778 9.1319,9.78732222 C9.50153333,9.49913333 9.5544,8.98072222 9.2502,8.63045556 C8.946,8.28018889 8.39956667,8.2288 8.02993333,8.5174 Z" id="Shape"></path>
                        <path d="M16.772,9.63521111 C12.2055333,8.99141111 11.8944,8.69582222 11.2149333,4.36394444 C11.1516667,3.96105556 10.7872333,3.66258889 10.3578,3.66258889 C9.92836667,3.66258889 9.5635,3.96105556 9.50066667,4.36394444 C9.32906667,5.45791111 9.1293,6.57654444 8.83073333,7.34737778 C8.66563333,7.7737 8.89573333,8.24647778 9.3451,8.4027 C9.7208,8.53425556 10.1324667,8.40187778 10.3530333,8.10423333 C10.8513667,9.27178889 11.5741667,9.96327778 12.7957333,10.4405778 C12.4404,10.5791222 12.1253667,10.7382222 11.8402333,10.9265111 C11.4476333,11.1867444 11.3514333,11.6989889 11.6253,12.0714556 C11.7938667,12.3008556 12.0629667,12.4229556 12.3368333,12.4229556 C12.508,12.4229556 12.6809,12.3752667 12.8321333,12.2753667 C13.5666333,11.7886111 14.8332667,11.5353667 16.772,11.2619778 C17.1966667,11.2019556 17.5112667,10.8562111 17.5112667,10.4483889 C17.5112667,10.0405667 17.1971,9.69482222 16.772,9.63521111 Z" id="Shape"></path>
                        <path d="M31.2050333,4.83384444 C30.7682333,4.64884444 30.2556,4.8322 30.0588667,5.2466 C29.8504333,5.68648889 29.7447,6.15556667 29.7447,6.64067778 C29.7447,8.51698889 31.3541,10.0438556 33.3322667,10.0438556 C35.3104333,10.0438556 36.9198333,8.51698889 36.9198333,6.64067778 C36.9198333,4.76395556 35.3104333,3.23708889 33.3322667,3.23708889 C32.8538667,3.23708889 32.4656,3.60544444 32.4656,4.05931111 C32.4656,4.51317778 32.8538667,4.88153333 33.3322667,4.88153333 C34.3545,4.88153333 35.1865,5.67086667 35.1865,6.64067778 C35.1865,7.61048889 34.3549333,8.39941111 33.3322667,8.39941111 C32.3096,8.39941111 31.4780333,7.61048889 31.4780333,6.64067778 C31.4780333,6.38948889 31.5322,6.14734444 31.6396667,5.92123333 C31.8359667,5.50683333 31.6414,5.02007778 31.2050333,4.83384444 Z" id="Shape"></path>
                        <ellipse id="Oval" cx="1.51346667" cy="0.974744444" rx="1.02743333" ry="1"></ellipse>
                        <ellipse id="Oval" cx="8.5209" cy="27.8342778" rx="1.0673" ry="1.01256667"></ellipse>
                        <ellipse id="Oval" cx="27.9576333" cy="1.94948889" rx="1" ry="1"></ellipse>
                        <ellipse id="Oval" cx="19.4764333" cy="13.0716889" rx="1" ry="1"></ellipse>
                    </g>
                </g>
                <g id="noun_Space_1652601" transform="translate(362.000000, 124.000000)" fill="#000000" fill-rule="nonzero">
                    <g id="Group">
                        <path d="M18.406383,25.0340568 C18.406383,25.4365741 18.758227,25.7781654 19.2331678,25.8378728 C26.1847518,26.7042395 26.7440189,27.1725568 27.7777423,32.9991062 C27.8484988,33.3971556 28.2560757,33.692037 28.7363475,33.692037 C29.2166194,33.692037 29.6246809,33.3971556 29.6949527,32.9991062 C30.0303191,31.109184 30.3608392,29.6473679 30.8842435,28.6579309 C31.1008747,28.2472901 30.8798818,27.7680062 30.3904019,27.5860407 C29.900922,27.403263 29.3285697,27.588884 29.1114539,27.9995247 C28.9709102,28.2655679 28.8444208,28.5498889 28.7276241,28.855737 C27.9221631,26.7533864 26.6868322,25.7172395 24.1798227,25.0421802 C25.6880024,24.6425062 26.7207565,24.1083889 27.5233097,23.2554259 C27.8547991,22.9028679 27.7825887,22.3923086 27.3619267,22.1144864 C26.9407801,21.8370704 26.3320804,21.8975901 26.000591,22.2493358 C24.9634752,23.3525012 23.0743735,23.7517691 19.2321986,24.2306469 C18.758227,24.289542 18.406383,24.6315395 18.406383,25.0340568 Z" id="Shape"></path>
                        <path d="M8.60030733,8.41508889 C7.80453901,8.96423457 6.38020095,9.22662222 4.0306974,9.51947284 C3.5557565,9.57877407 3.20391253,9.92036543 3.20391253,10.3232889 C3.20391253,10.7262123 3.5557565,11.0673975 4.0306974,11.1271049 C9.13776596,11.7635778 9.48621749,12.055616 10.2456383,16.3354593 C10.3163948,16.7335086 10.7239716,17.0283901 11.2042435,17.0283901 C11.6845154,17.0283901 12.0925768,16.7335086 12.1628487,16.3354593 C12.4100118,14.9435049 12.6513593,13.8683654 13.0284043,13.1453778 C13.2426123,12.7339247 13.018227,12.2554531 12.5277778,12.0755185 C12.0373286,11.8972086 11.4659456,12.0840481 11.2517376,12.4946889 C11.2323522,12.532463 11.2129669,12.570237 11.1945508,12.6084173 C10.6377069,11.4743827 9.83176123,10.7989173 8.47963357,10.3322247 C9.00061466,10.1531025 9.44308511,9.93864321 9.8327305,9.66975679 C10.2461229,9.38502963 10.3052482,8.87284568 9.96503546,8.52678642 C9.6248227,8.18072716 9.01369976,8.12995556 8.60030733,8.41508889 Z" id="Shape"></path>
                        <path d="M18.377305,9.51947284 C13.2702364,8.88340617 12.9222695,8.5913679 12.1623641,4.31152469 C12.0916076,3.91347531 11.6840307,3.61859383 11.2037589,3.61859383 C10.723487,3.61859383 10.3154255,3.91347531 10.2451537,4.31152469 C10.0532388,5.39235062 9.8298227,6.49754691 9.49591017,7.25912099 C9.31126478,7.68032222 9.5686052,8.14742099 10.0711702,8.30176667 C10.4913475,8.43174198 10.9517494,8.30095432 11.1984279,8.00688519 C11.7557565,9.16041605 12.5641253,9.84359877 13.9303073,10.3151654 C13.5329078,10.4520457 13.1805792,10.6092346 12.8616903,10.7952617 C12.4226123,11.0523691 12.3150236,11.5584605 12.6213121,11.9264531 C12.8098345,12.1530975 13.110792,12.2737309 13.4170804,12.2737309 C13.6085106,12.2737309 13.8018794,12.2266148 13.9710165,12.1279148 C14.7924704,11.6470062 16.2090544,11.3968037 18.377305,11.1266988 C18.8522459,11.0673975 19.2040898,10.7258062 19.2040898,10.3228827 C19.2040898,9.91995926 18.8527305,9.5783679 18.377305,9.51947284 Z" id="Shape"></path>
                        <ellipse id="Oval" cx="1.31238771" cy="0.963035802" rx="1.14906619" ry="1"></ellipse>
                        <ellipse id="Oval" cx="38.9984634" cy="33.3374481" rx="1.19365248" ry="1.0004037"></ellipse>
                    </g>
                </g>
                <g id="noun_Space_1652601" transform="translate(434.000000, 188.000000)" fill="#000000" fill-rule="nonzero">
                    <g id="Group">
                        <path d="M26.0349333,16.5751778 C25.6055,16.5751778 25.2406333,16.8736444 25.1778,17.2765333 C24.9576667,18.6813 24.7015667,20.1243 24.3232667,21.1631778 C24.1672667,21.5923778 24.4073333,22.0606333 24.8597333,22.2086333 C25.3125667,22.3558111 25.8057,22.1288778 25.9617,21.6996778 C25.989,21.6244444 26.0158667,21.5479778 26.0418667,21.4698667 C26.7629333,23.5998333 27.8688,24.6485778 30.1147667,25.3322556 C29.0782333,25.6447 28.2848,26.0397778 27.6430333,26.6005333 C27.2911667,26.9084556 27.2690667,27.4289222 27.5936333,27.7623333 C27.7643667,27.9382889 27.9975,28.0275 28.2310667,28.0275 C28.4412333,28.0275 28.6518333,27.9555556 28.8182333,27.8100222 C29.8001667,26.9512111 31.5127,26.5779222 34.5317333,26.1520111 C34.9564,26.0919889 35.271,25.7462444 35.271,25.3384222 C35.271,24.9306 34.9564,24.5852667 34.5317333,24.5248333 C28.316,23.6479333 27.8159333,23.1739222 26.8916333,17.2765333 C26.8288,16.8736444 26.4643667,16.5751778 26.0349333,16.5751778 Z" id="Shape"></path>
                        <path d="M16.798,25.3384222 C16.798,25.7458333 17.1126,26.0915778 17.5372667,26.1520111 C23.753,27.0289111 24.2530667,27.5029222 25.1773667,33.4003111 C25.2406333,33.8032 25.6050667,34.1016667 26.0345,34.1016667 C26.4639333,34.1016667 26.8288,33.8032 26.8916333,33.4003111 C27.1915,31.4874111 27.4870333,30.0078222 27.9550333,29.0063556 C28.1487333,28.5907222 27.9511333,28.1056111 27.5134667,27.9214333 C27.0758,27.7364333 26.5640333,27.9243111 26.3699,28.3399444 C26.2442333,28.6092222 26.1311333,28.897 26.0267,29.2065667 C25.3065,27.0786556 24.2019333,26.0299111 21.9603,25.3466444 C23.3088333,24.9421111 24.2322667,24.4015 24.9498667,23.5381667 C25.2462667,23.1813222 25.1817,22.6645556 24.8055667,22.3833556 C24.429,22.1025667 23.8847333,22.1638222 23.5883333,22.5198444 C22.661,23.6364222 20.9718667,24.0405444 17.5364,24.5252444 C17.1126,24.5848556 16.798,24.9310111 16.798,25.3384222 Z" id="Shape"></path>
                        <path d="M8.02993333,8.5174 C7.3184,9.07322222 6.04483333,9.3388 3.94403333,9.63521111 C3.51936667,9.69523333 3.20476667,10.0409778 3.20476667,10.4488 C3.20476667,10.8566222 3.51936667,11.2019556 3.94403333,11.2623889 C8.5105,11.9066 8.82206667,12.2021889 9.5011,16.5340667 C9.56436667,16.9369556 9.9288,17.2354222 10.3582333,17.2354222 C10.7876667,17.2354222 11.1525333,16.9369556 11.2153667,16.5340667 C11.4363667,15.1251889 11.6521667,14.0369778 11.9893,13.3052 C12.1808333,12.8887444 11.9802,12.4044556 11.5416667,12.2223333 C11.1031333,12.0418556 10.5922333,12.2309667 10.4007,12.6466 C10.3833667,12.6848333 10.3660333,12.7230667 10.3495667,12.7617111 C9.85166667,11.6138889 9.13103333,10.9302111 7.92203333,10.4578444 C8.38786667,10.2765444 8.7835,10.0594778 9.1319,9.78732222 C9.50153333,9.49913333 9.5544,8.98072222 9.2502,8.63045556 C8.946,8.28018889 8.39956667,8.2288 8.02993333,8.5174 Z" id="Shape"></path>
                        <path d="M16.772,9.63521111 C12.2055333,8.99141111 11.8944,8.69582222 11.2149333,4.36394444 C11.1516667,3.96105556 10.7872333,3.66258889 10.3578,3.66258889 C9.92836667,3.66258889 9.5635,3.96105556 9.50066667,4.36394444 C9.32906667,5.45791111 9.1293,6.57654444 8.83073333,7.34737778 C8.66563333,7.7737 8.89573333,8.24647778 9.3451,8.4027 C9.7208,8.53425556 10.1324667,8.40187778 10.3530333,8.10423333 C10.8513667,9.27178889 11.5741667,9.96327778 12.7957333,10.4405778 C12.4404,10.5791222 12.1253667,10.7382222 11.8402333,10.9265111 C11.4476333,11.1867444 11.3514333,11.6989889 11.6253,12.0714556 C11.7938667,12.3008556 12.0629667,12.4229556 12.3368333,12.4229556 C12.508,12.4229556 12.6809,12.3752667 12.8321333,12.2753667 C13.5666333,11.7886111 14.8332667,11.5353667 16.772,11.2619778 C17.1966667,11.2019556 17.5112667,10.8562111 17.5112667,10.4483889 C17.5112667,10.0405667 17.1971,9.69482222 16.772,9.63521111 Z" id="Shape"></path>
                        <path d="M31.2050333,4.83384444 C30.7682333,4.64884444 30.2556,4.8322 30.0588667,5.2466 C29.8504333,5.68648889 29.7447,6.15556667 29.7447,6.64067778 C29.7447,8.51698889 31.3541,10.0438556 33.3322667,10.0438556 C35.3104333,10.0438556 36.9198333,8.51698889 36.9198333,6.64067778 C36.9198333,4.76395556 35.3104333,3.23708889 33.3322667,3.23708889 C32.8538667,3.23708889 32.4656,3.60544444 32.4656,4.05931111 C32.4656,4.51317778 32.8538667,4.88153333 33.3322667,4.88153333 C34.3545,4.88153333 35.1865,5.67086667 35.1865,6.64067778 C35.1865,7.61048889 34.3549333,8.39941111 33.3322667,8.39941111 C32.3096,8.39941111 31.4780333,7.61048889 31.4780333,6.64067778 C31.4780333,6.38948889 31.5322,6.14734444 31.6396667,5.92123333 C31.8359667,5.50683333 31.6414,5.02007778 31.2050333,4.83384444 Z" id="Shape"></path>
                        <ellipse id="Oval" cx="1.51346667" cy="0.974744444" rx="1.02743333" ry="1"></ellipse>
                        <ellipse id="Oval" cx="35.2103333" cy="33.7427667" rx="1.0673" ry="1.01256667"></ellipse>
                        <ellipse id="Oval" cx="27.9576333" cy="1.94948889" rx="1" ry="1"></ellipse>
                        <ellipse id="Oval" cx="19.4764333" cy="13.0716889" rx="1" ry="1"></ellipse>
                    </g>
                </g>
                <g id="noun_Space_1652601" transform="translate(408.000000, 354.000000)" fill="#000000" fill-rule="nonzero">
                    <g id="Group">
                        <path d="M8.18078014,9.83581818 C7.42382979,10.4776768 6.06897163,10.7843636 3.83407801,11.1266566 C3.38230496,11.1959697 3.04762411,11.5952323 3.04762411,12.0661818 C3.04762411,12.5371313 3.38230496,12.9359192 3.83407801,13.0057071 C8.69202128,13.7496364 9.02347518,14.0909798 9.74585106,19.0933939 C9.81315603,19.5586465 10.2008511,19.9033131 10.657695,19.9033131 C11.114539,19.9033131 11.502695,19.5586465 11.569539,19.0933939 C11.8046454,17.4664343 12.0342199,16.2097778 12.3928723,15.3647273 C12.5966312,14.8838081 12.3831915,14.3245556 11.9166667,14.1142424 C11.4501418,13.9058283 10.9066312,14.1242121 10.7028723,14.6041818 C10.6844326,14.6483333 10.6659929,14.6924848 10.6484752,14.7371111 C10.1187943,13.4116162 9.35216312,12.6221111 8.06599291,12.0766263 C8.56156028,11.8672626 8.98244681,11.616596 9.35308511,11.3023131 C9.74631206,10.9695152 9.80255319,10.3708586 9.47893617,9.96637374 C9.15531915,9.56188889 8.57400709,9.50254545 8.18078014,9.83581818 Z" id="Shape"></path>
                        <path d="M17.4808511,11.1266566 C12.6229078,10.383202 12.2919149,10.0418586 11.569078,5.03944444 C11.501773,4.57419192 11.114078,4.22952525 10.657234,4.22952525 C10.2003901,4.22952525 9.81223404,4.57419192 9.74539007,5.03944444 C9.56283688,6.30274747 9.35031915,7.59453535 9.03269504,8.48468687 C8.85705674,8.977 9.10184397,9.5229596 9.57989362,9.70336364 C9.97957447,9.85528283 10.4175177,9.70241414 10.6521631,9.35869697 C11.182305,10.7069798 11.9512411,11.5055051 13.2507801,12.0566869 C12.872766,12.2166768 12.5376241,12.400404 12.2342908,12.6178384 C11.8166312,12.9183535 11.7142908,13.5098889 12.0056383,13.9400101 C12.1849645,14.2049192 12.4712411,14.3459192 12.7625887,14.3459192 C12.9446809,14.3459192 13.128617,14.2908485 13.2895035,14.1754848 C14.0708865,13.6133838 15.4183688,13.3209394 17.4808511,13.0052323 C17.9326241,12.9359192 18.267305,12.5366566 18.267305,12.0657071 C18.267305,11.5947576 17.9330851,11.1954949 17.4808511,11.1266566 Z" id="Shape"></path>
                        <path d="M32.8351418,5.58208081 C32.370461,5.36844444 31.8251064,5.58018182 31.6158156,6.05872727 C31.394078,6.56670707 31.2815957,7.10839394 31.2815957,7.66859596 C31.2815957,9.83534343 32.9937234,11.5985556 35.098156,11.5985556 C37.2025887,11.5985556 38.9147163,9.83534343 38.9147163,7.66859596 C38.9147163,5.50137374 37.2025887,3.73816162 35.098156,3.73816162 C34.5892199,3.73816162 34.1761702,4.16353535 34.1761702,4.68765657 C34.1761702,5.21177778 34.5892199,5.63715152 35.098156,5.63715152 C36.1856383,5.63715152 37.0707447,6.54866667 37.0707447,7.66859596 C37.0707447,8.78852525 36.1860993,9.69956566 35.098156,9.69956566 C34.0102128,9.69956566 33.1255674,8.78852525 33.1255674,7.66859596 C33.1255674,7.37852525 33.1831915,7.09889899 33.2975177,6.83778788 C33.5063475,6.35924242 33.2993617,5.79714141 32.8351418,5.58208081 Z" id="Shape"></path>
                        <ellipse id="Oval" cx="1.24836879" cy="1.12562626" rx="1.09301418" ry="1.12562626"></ellipse>
                        <ellipse id="Oval" cx="29.380461" cy="2.25125253" rx="1" ry="1"></ellipse>
                    </g>
                </g>
                <g id="noun_Space_1585866" transform="translate(374.000000, 254.000000)" stroke="#000000" stroke-linecap="round" stroke-linejoin="round" stroke-width="2">
                    <g id="Group">
                        <path d="M45.3173077,22 C42.5178958,26.8085958 39.0938887,31.2252093 35.1346154,35.1346154 C22.6346154,47.6346154 7.92307692,53.125 2.24038462,47.4423077 C-3.44230769,41.7596154 2.06730769,27.0288462 14.5480769,14.5480769 C27.0288462,2.06730769 41.7596154,-3.44230769 47.4423077,2.24038462 C50.5192308,5.31730769 50.3269231,11.0480769 47.5096154,17.625" id="Shape"></path>
                        <path d="M6.41346154,34.2211538 C7.51923077,29.1442308 11.2980769,22.7692308 16.9903846,17.0384615 C26.4134615,7.61538462 37.5384615,3.47115385 41.8557692,7.78846154 C46.1730769,12.1057692 42.0673077,23.2307692 32.6923077,32.6923077 C23.3173077,42.1538462 12.0961538,46.2115385 7.77884615,41.9038462 C7.23330344,41.358346 6.81042843,40.7027258 6.53846154,39.9807692" id="Shape"></path>
                        <path d="M32.0961538,12.75 C33.4579964,12.4535374 34.8801937,12.8090868 35.9423077,13.7115385 C38.6442308,16.4134615 35.8557692,23.5865385 29.7115385,29.7307692 C23.5673077,35.875 16.3942308,38.6634615 13.6923077,35.9615385 C10.9903846,33.2596154 13.7788462,26.0865385 19.9230769,19.9423077 C22.0359084,17.7921956 24.4487252,15.9591025 27.0865385,14.5" id="Shape"></path>
                        <ellipse id="Oval" transform="translate(24.836941, 24.849706) rotate(-44.990000) translate(-24.836941, -24.849706) " cx="24.8369415" cy="24.8497064" rx="3.09615385" ry="2.88461538"></ellipse>
                        <ellipse id="Oval" transform="translate(6.178391, 36.896213) rotate(-45.000000) translate(-6.178391, -36.896213) " cx="6.17839067" cy="36.8962131" rx="2.40384615" ry="2.24038462"></ellipse>
                        <ellipse id="Oval" transform="translate(46.535101, 19.940863) rotate(-45.000000) translate(-46.535101, -19.940863) " cx="46.5351013" cy="19.940863" rx="2.40384615" ry="2.24038462"></ellipse>
                        <path d="M31.1730769,11.8846154 C31.3344976,12.0473705 31.4677255,12.2358392 31.5673077,12.4423077 C31.9944485,13.3701316 31.7859334,14.4667666 31.0480769,15.1730769 C30.1718067,16.112915 28.6996031,16.1645713 27.7596154,15.2884615 C27.4979543,15.0214311 27.3121023,14.6895526 27.2211538,14.3269231 C27.0171833,13.4915159 27.2694268,12.6104915 27.8846154,12.0096154 C28.3041096,11.5569503 28.8862468,11.2894743 29.502957,11.2660321 C30.1196672,11.2425899 30.7204298,11.4651019 31.1730769,11.8846154 Z" id="Shape"></path>
                    </g>
                </g>
            </g>
        </g>
    </g>
</svg>