<svg xmlns="http://www.w3.org/2000/svg" xmlns:xlink="http://www.w3.org/1999/xlink" width="14" height="13" viewBox="0 0 14 13"><defs><path id="q6p8a" d="M569 402.37c0-.39-.09-.74-.24-1.04-.47-.9-1.56-1.37-2.83-1.37h-1.4c-.67-.05-.76-.56-.76-1.2v-.2c.85-.78 1.76-1.87 1.76-3.5 0-2.17-.7-3.7-2.74-4l-.07-.01a5.35 5.35 0 0 0-1.44 0h-.07c-2.03.31-2.74 1.84-2.74 4.01 0 1.63.91 2.72 1.76 3.5v.2c0 .64-.1 1.15-.76 1.2h-1.4c-1.38 0-2.54.56-2.93 1.6-.1.25-.14.52-.14.81 0 .1.05.2.16.3.38.37 1.44.72 2.81.97a22.86 22.86 0 0 0 8.06 0c1.37-.25 2.43-.6 2.81-.97.1-.1.16-.2.16-.3z"/></defs><g><g transform="translate(-555 -391)"><use xlink:href="#q6p8a"/></g></g></svg>