<svg xmlns="http://www.w3.org/2000/svg" xmlns:xlink="http://www.w3.org/1999/xlink" width="28" height="25" viewBox="0 0 28 25"><defs><path id="9ht6a" d="M263 378.73a.79.79 0 0 0-.78.79v6.34h-3.99a.79.79 0 0 0-.78.78v.4c0 .43.35.79.78.79h5.17c.44 0 .79-.36.79-.8v-7.51a.79.79 0 0 0-.79-.79z"/><path id="9ht6b" d="M266.5 396.8v-.02V395.96a10.27 10.27 0 1 1-3.27-20c5.18 0 9.47 3.86 10.16 8.85.7 0 1.38.06 2 .14A12.25 12.25 0 0 0 263.23 374 12.24 12.24 0 0 0 251 386.23a12.24 12.24 0 0 0 15.79 11.7c-.2-.26-.3-.53-.3-.82z"/><path id="9ht6c" d="M267.33 387.82c0 .65 2.22 1.55 5.83 1.55 3.62 0 5.84-.9 5.84-1.55s-2.22-1.56-5.84-1.56c-3.61 0-5.83.9-5.83 1.56z"/><path id="9ht6d" d="M267.29 388.78v1.96c.09.77 2.3 1.82 5.84 1.82 3.62 0 5.84-1.1 5.84-1.88v-1.9c-1.19.89-3.57 1.36-5.84 1.36s-4.65-.47-5.84-1.36z"/><path id="9ht6e" d="M267.29 395.2V397.12c0 .79 2.22 1.89 5.84 1.89 3.63 0 5.85-1.1 5.85-1.89v-1.9c-1.19.88-3.57 1.35-5.85 1.35-2.27 0-4.65-.46-5.84-1.35z"/><path id="9ht6f" d="M267.29 392V393.95c.09.78 2.3 1.82 5.84 1.82 3.62 0 5.84-1.09 5.84-1.87V392c-1.19.88-3.57 1.35-5.84 1.35-2.28 0-4.65-.47-5.84-1.35z"/></defs><g><g transform="translate(-251 -374)"><g><use fill="#fff" xlink:href="#9ht6a"/></g><g><use fill="#fff" xlink:href="#9ht6b"/></g><g><use fill="#fff" xlink:href="#9ht6c"/></g><g><use fill="#fff" xlink:href="#9ht6d"/></g><g><use fill="#fff" xlink:href="#9ht6e"/></g><g><use fill="#fff" xlink:href="#9ht6f"/></g></g></g></svg>