<svg xmlns="http://www.w3.org/2000/svg" xmlns:xlink="http://www.w3.org/1999/xlink" width="17" height="14" viewBox="0 0 17 14"><defs><path id="l1z8a" d="M721.93 334.75c0 .36-.29.64-.66.64h-2.95a1.3 1.3 0 0 1-1.32-1.28v-.32c0-.71.6-1.29 1.32-1.29h2.93c.37 0 .68.3.68.64zm-14.37-5.1v-.51c0-.7.6-1.28 1.32-1.28h10.28c.72 0 1.32.57 1.32 1.28v2.5h-2.14c-1.2 0-2.2.97-2.2 2.15v.32c0 1.17 1 2.14 2.2 2.14h2.14v2.5c0 .7-.6 1.29-1.32 1.29h-10.28a1.3 1.3 0 0 1-1.32-1.29v-9.34l-.88-.23v9.6c0 1.17.99 2.13 2.2 2.13h10.28c1.2 0 2.2-.96 2.2-2.14v-2.52c.8-.05 1.45-.71 1.45-1.5v-1.6c0-.8-.64-1.46-1.45-1.5v-2.51c0-1.18-1-2.14-2.2-2.14h-10.28c-1.21 0-2.2.96-2.2 2.14v.52z"/></defs><g><g opacity=".35" transform="translate(-706 -327)"><g opacity=".35"><use xlink:href="#l1z8a"/><use fill="#fff" fill-opacity="0" stroke-miterlimit="50" stroke-width=".6" xlink:href="#l1z8a"/></g></g></g></svg>