<svg xmlns="http://www.w3.org/2000/svg" xmlns:xlink="http://www.w3.org/1999/xlink" width="32" height="32" viewBox="0 0 32 32"><defs><path id="htfga" d="M447.93 491.11a15.83 15.83 0 1 0 0 31.65c8.76 0 15.86-7.07 15.86-15.83a15.88 15.88 0 0 0-15.86-15.82zm0 2.81c7.17 0 13.05 5.84 13.05 13.01 0 7.18-5.84 13.02-13.05 13.02-7.2 0-13.05-5.84-13.05-13.02 0-7.17 5.84-13 13.05-13z"/><path id="htfgb" d="M449.37 498.99v10.65c0 .78-.63 1.4-1.4 1.4-.78 0-1.41-.62-1.41-1.4V499c0-.78.63-1.41 1.4-1.41.78 0 1.41.63 1.41 1.4z"/><path id="htfgc" d="M446.49 514.88a1.44 1.44 0 1 1 2.88 0 1.44 1.44 0 0 1-2.88 0z"/></defs><g><g transform="translate(-432 -491)"><g><use fill="#313647" xlink:href="#htfga"/></g><g><g><use fill="#313647" xlink:href="#htfgb"/></g><g><use fill="#313647" xlink:href="#htfgc"/></g></g></g></g></svg>