<svg xmlns="http://www.w3.org/2000/svg" xmlns:xlink="http://www.w3.org/1999/xlink" width="16" height="18" viewBox="0 0 16 18"><defs><path id="ziiua" d="M742.02 506.02a.58.58 0 0 0 .59.57h2.7c.31 0 .57-.26.57-.58V493.7a.58.58 0 0 0-.58-.58h-2.7a.58.58 0 1 0 0 1.15h2.12v11.16h-2.11a.58.58 0 0 0-.6.59zm-11.43-6.15c0 .28.26.53.54.53h9.74l-2.99 2.99a.53.53 0 1 0 .75.75l3.9-3.9a.53.53 0 0 0 0-.75l-3.9-3.9a.53.53 0 1 0-.75.75l3 3h-9.75a.55.55 0 0 0-.54.53z"/></defs><g><g transform="translate(-731 -492)"><use fill="#161d31" xlink:href="#ziiua"/><use fill="#fff" fill-opacity="0" stroke="#161d31" stroke-miterlimit="50" stroke-width=".4" xlink:href="#ziiua"/></g></g></svg>